<svg width="219" height="102" viewBox="0 0 219 102" fill="none" xmlns="http://www.w3.org/2000/svg">
<g clip-path="url(#clip0_5570_3057)">
<path fill-rule="evenodd" clip-rule="evenodd" d="M142.018 0.00641116C136.807 7.24569 133.98 10.7825 126.646 10.7825C119.312 10.7825 111.955 10.7707 104.603 10.7707C100.812 6.187 94.0279 5.53642 89.4383 9.32757L92.3482 12.8467C85.0143 12.8467 82.1931 16.3835 76.9766 23.6228C85.0912 23.6228 93.2058 23.6228 101.326 23.6287L109.973 33.9494C113.912 38.7992 113.652 46.0858 111.399 50.4862C119.253 44.5067 124.363 34.393 116.952 25.5391L115.373 23.6583L119.827 23.6405C127.161 23.6405 129.988 20.1037 135.198 12.8644C125.581 12.8644 115.965 12.8585 106.342 12.8526L104.597 10.7707C104.603 4.82668 109.423 0.000496718 115.373 0.000496718C115.373 -0.00541773 139.794 0.000496718 142.018 0.00641116Z" fill="#006CD8"/>
<path fill-rule="evenodd" clip-rule="evenodd" d="M127.515 79.9164V73.5525C133.542 73.5525 139.563 73.5525 145.59 73.5525C142.325 77.8227 140.557 79.9046 135.961 79.9046L133.17 79.9164H127.515Z" fill="#006CD8"/>
<path d="M33.5703 68.5486C33.5703 68.111 33.9252 67.7561 34.3628 67.7561H39.2363C39.674 67.7561 40.0289 68.111 40.0289 68.5486V72.2925C40.0289 72.3221 40.0525 72.3516 40.088 72.3516C40.088 72.3516 40.1294 72.3398 40.1413 72.3161C40.4606 71.565 40.8865 70.873 41.4188 70.2461C41.9629 69.5777 42.5839 69.0159 43.2877 68.5723C43.9916 68.0932 44.7368 67.7265 45.5352 67.4722C46.3337 67.2179 47.1617 67.0878 48.0252 67.0878C48.3091 67.0878 48.6107 67.1173 48.936 67.1824C49.2791 67.2534 49.5097 67.5668 49.5097 67.9158V72.671C49.5097 73.1737 49.0484 73.5523 48.5516 73.5109C48.4865 73.5109 48.4274 73.499 48.3623 73.4931C47.9188 73.4281 47.487 73.3985 47.073 73.3985C45.831 73.3985 44.7782 73.6055 43.9147 74.0195C43.0512 74.4335 42.3533 75.0072 41.8091 75.7406C41.3005 76.4444 40.9338 77.2724 40.709 78.2306C40.4843 79.1887 40.3719 80.2237 40.3719 81.3416V91.6978C40.3719 92.1354 40.0171 92.4903 39.5794 92.4903H34.3688C33.9311 92.4903 33.5762 92.1354 33.5762 91.6978V68.5427L33.5703 68.5486Z" fill="#001E57"/>
<path d="M75.3738 91.7039C75.3738 92.1416 75.0189 92.4965 74.5812 92.4965H69.7077C69.27 92.4965 68.9152 92.1416 68.9152 91.7039V89.143C68.9152 89.0898 68.8738 89.0543 68.8265 89.0543C68.7969 89.0543 68.7614 89.072 68.7496 89.1016C67.892 90.5151 66.786 91.5383 65.4257 92.1653C64.0535 92.804 62.6518 93.1234 61.2146 93.1234C59.3988 93.1234 57.8966 92.8868 56.7196 92.4078C55.5722 91.9287 54.6614 91.2603 53.993 90.3968C53.3247 89.5038 52.8456 88.4332 52.5558 87.1912C52.3015 85.9137 52.1714 84.512 52.1714 82.9801V68.5548C52.1714 68.1171 52.5263 67.7623 52.9639 67.7623H58.1745C58.6122 67.7623 58.9671 68.1171 58.9671 68.5548V81.7381C58.9671 83.7786 59.2865 85.3104 59.9252 86.3336C60.564 87.3213 61.6936 87.8181 63.3201 87.8181C65.1713 87.8181 66.508 87.274 67.3419 86.1917C68.17 85.0738 68.584 83.2581 68.584 80.7386V68.5607C68.584 68.123 68.9388 67.7682 69.3765 67.7682H74.5871C75.0248 67.7682 75.3797 68.123 75.3797 68.5607V91.7158L75.3738 91.7039Z" fill="#001E57"/>
<path d="M80.7202 59.1211C80.7202 58.6835 81.0751 58.3286 81.5128 58.3286H86.7234C87.161 58.3286 87.5159 58.6835 87.5159 59.1211V91.7038C87.5159 92.1415 87.161 92.4963 86.7234 92.4963H81.5128C81.0751 92.4963 80.7202 92.1415 80.7202 91.7038V59.1211Z" fill="#001E57"/>
<path d="M150.28 68.5486C150.28 68.111 150.635 67.7561 151.073 67.7561H155.946C156.384 67.7561 156.739 68.111 156.739 68.5486V72.2925C156.739 72.3221 156.762 72.3516 156.798 72.3516C156.798 72.3516 156.845 72.3398 156.851 72.3161C157.17 71.565 157.596 70.873 158.128 70.2461C158.673 69.5777 159.294 69.0159 159.997 68.5723C160.701 68.0932 161.447 67.7265 162.245 67.4722C163.043 67.2179 163.871 67.0878 164.735 67.0878C165.019 67.0878 165.32 67.1173 165.64 67.1824C165.983 67.2534 166.214 67.5668 166.214 67.9158V72.671C166.214 73.1737 165.752 73.5523 165.255 73.5109C165.19 73.5109 165.131 73.499 165.066 73.4931C164.623 73.4281 164.191 73.3985 163.777 73.3985C162.535 73.3985 161.482 73.6055 160.618 74.0195C159.755 74.4335 159.057 75.0072 158.513 75.7406C158.004 76.4444 157.638 77.2724 157.413 78.2306C157.188 79.1887 157.076 80.2237 157.076 81.3416V91.6978C157.076 92.1354 156.721 92.4903 156.283 92.4903H151.073C150.635 92.4903 150.28 92.1354 150.28 91.6978V68.5427V68.5486Z" fill="#006CD8"/>
<path fill-rule="evenodd" clip-rule="evenodd" d="M174.464 81.2232C174.015 81.2232 173.648 81.6017 173.695 82.0512C173.885 83.8314 174.423 85.1503 175.31 86.0138C176.333 87.0016 177.8 87.4984 179.71 87.4984C181.083 87.4984 182.265 87.1613 183.253 86.4929C184.004 85.9606 184.537 85.4106 184.844 84.8369C185.01 84.5293 185.311 84.2868 185.666 84.2868H189.966C190.504 84.2868 190.883 84.8132 190.688 85.31C189.735 87.7468 188.393 89.527 186.648 90.6508C184.673 91.9283 182.277 92.5671 179.474 92.5671C177.528 92.5671 175.771 92.2654 174.21 91.6562C172.649 91.0175 171.324 90.1244 170.241 88.977C169.159 87.8296 168.313 86.4574 167.704 84.8605C167.13 83.2636 166.841 81.513 166.841 79.5967C166.841 77.6804 167.142 76.0244 167.751 74.4275C168.355 72.8306 169.218 71.4584 170.336 70.311C171.454 69.1281 172.779 68.2055 174.305 67.5371C175.866 66.8688 177.587 66.5317 179.474 66.5317C181.579 66.5317 183.413 66.9457 184.974 67.7737C186.536 68.5722 187.813 69.6545 188.801 71.0267C189.824 72.3988 190.557 73.9602 191.001 75.7168C191.391 77.2427 191.563 78.8337 191.516 80.4779C191.504 80.8979 191.155 81.2172 190.741 81.2172H174.464V81.2232ZM182.963 72.9962C183.638 73.7236 184.14 74.7173 184.477 75.9889C184.602 76.4679 184.229 76.9174 183.732 76.9174H174.482C174.021 76.9174 173.66 76.5271 173.743 76.0776C173.79 75.8292 173.849 75.563 173.92 75.291C174.109 74.6877 174.417 74.1081 174.831 73.5699C175.275 73.0257 175.854 72.5822 176.552 72.2273C177.285 71.8429 178.196 71.6536 179.279 71.6536C180.935 71.6536 182.165 72.1031 182.963 72.9962Z" fill="#006CD8"/>
<path fill-rule="evenodd" clip-rule="evenodd" d="M201.937 81.2232C201.487 81.2232 201.121 81.6017 201.168 82.0512C201.357 83.8314 201.896 85.1503 202.783 86.0138C203.806 87.0016 205.273 87.4984 207.183 87.4984C208.555 87.4984 209.732 87.1613 210.726 86.4929C211.477 85.9606 212.009 85.4106 212.317 84.8369C212.482 84.5293 212.784 84.2868 213.139 84.2868H217.439C217.977 84.2868 218.355 84.8132 218.16 85.31C217.208 87.7468 215.865 89.527 214.121 90.6508C212.145 91.9283 209.75 92.5671 206.946 92.5671C205.001 92.5671 203.244 92.2654 201.683 91.6562C200.121 91.0175 198.796 90.1244 197.714 88.977C196.632 87.8296 195.786 86.4574 195.177 84.8605C194.603 83.2636 194.313 81.513 194.313 79.5967C194.313 77.6804 194.615 76.0244 195.224 74.4275C195.827 72.8306 196.691 71.4584 197.809 70.311C198.927 69.1281 200.251 68.2055 201.777 67.5371C203.339 66.8688 205.066 66.5317 206.946 66.5317C209.052 66.5317 210.886 66.9457 212.447 67.7737C214.008 68.5722 215.286 69.6545 216.274 71.0267C217.297 72.3988 218.03 73.9602 218.474 75.7168C218.864 77.2427 219.036 78.8337 218.988 80.4779C218.976 80.8979 218.628 81.2172 218.213 81.2172H201.937V81.2232ZM210.436 72.9962C211.11 73.7236 211.613 74.7173 211.95 75.9889C212.08 76.4679 211.702 76.9174 211.205 76.9174H201.949C201.493 76.9174 201.127 76.5271 201.209 76.0776C201.257 75.8292 201.316 75.563 201.387 75.291C201.576 74.6877 201.884 74.1081 202.298 73.5699C202.747 73.0257 203.321 72.5822 204.019 72.2273C204.752 71.8429 205.663 71.6536 206.745 71.6536C208.401 71.6536 209.632 72.1031 210.43 72.9962H210.436Z" fill="#006CD8"/>
<path fill-rule="evenodd" clip-rule="evenodd" d="M14.5317 64.6454V91.704C14.5317 92.1416 14.8866 92.4965 15.3243 92.4965H21.2505C21.6882 92.4965 22.0431 92.1416 22.0431 91.704V64.6454H14.5317Z" fill="#001E57"/>
<path d="M134.21 58.3697L125.948 58.3342L129.485 61.3091L134.205 58.3697H134.21Z" fill="#006CD8"/>
<path fill-rule="evenodd" clip-rule="evenodd" d="M126.747 92.4963C126.309 92.4963 125.954 92.1415 125.954 91.7038V58.3286L129.491 61.3036L133.465 64.6452V91.7038C133.465 92.1415 133.111 92.4963 132.673 92.4963H126.747Z" fill="#006CD8"/>
<path fill-rule="evenodd" clip-rule="evenodd" d="M102.006 99.8657C103.313 99.0022 104.337 97.5709 105.07 95.56L115.006 68.8267C115.201 68.3063 114.817 67.7562 114.261 67.7562H108.944C108.601 67.7562 108.293 67.981 108.187 68.3063L102.97 84.6479C102.97 84.6479 102.935 84.6952 102.905 84.6952C102.905 84.6952 102.852 84.6774 102.84 84.6479L97.4344 68.2944C97.328 67.9691 97.0263 67.7503 96.6833 67.7503H91.171C90.621 67.7503 90.2365 68.3003 90.4258 68.8208L98.6883 90.9586C98.8775 91.4376 98.9781 91.9463 98.9781 92.4904C98.9781 93.2238 98.7533 93.8921 98.3098 94.5013C97.8957 95.1046 97.2392 95.4595 96.3462 95.5541C95.9676 95.5718 95.5832 95.5718 95.2047 95.56L95.0509 101.102C95.5477 101.131 96.0445 101.149 96.5354 101.149C98.8657 101.149 100.681 100.717 101.989 99.8598L102.006 99.8657Z" fill="#001E57"/>
<mask id="mask0_5570_3057" style="mask-type:luminance" maskUnits="userSpaceOnUse" x="0" y="58" width="38" height="8">
<path d="M37.0717 58.3286H0V65.1953H37.0717V58.3286Z" fill="white"/>
</mask>
<g mask="url(#mask0_5570_3057)">
<path fill-rule="evenodd" clip-rule="evenodd" d="M18.6839 58.3288H9.77676C5.11027 58.3288 3.32411 60.5704 0.00610352 65.1718H15.5138L24.4505 65.1895L27.2835 65.1777C28.0051 65.1777 28.6616 65.1245 29.2589 65.0121C29.6611 64.9411 30.0337 64.8465 30.3945 64.7282C30.7435 64.6099 31.0806 64.4739 31.3941 64.3083C31.6306 64.19 31.8554 64.054 32.086 63.9061C32.2694 63.7878 32.4468 63.6636 32.6183 63.5276C33.0501 63.1964 33.4641 62.8179 33.8781 62.3861C34.2685 61.978 34.6647 61.5226 35.061 61.0199C35.3331 60.6827 35.6111 60.322 35.889 59.9494C36.2616 59.4466 36.6579 58.9084 37.0719 58.3288C30.9505 58.3288 24.8231 58.3288 18.7017 58.3288H18.6839Z" fill="#001E57"/>
</g>
<mask id="mask1_5570_3057" style="mask-type:luminance" maskUnits="userSpaceOnUse" x="127" y="58" width="27" height="16">
<path d="M153.521 58.3286H127.433V73.8895H153.521V58.3286Z" fill="white"/>
</mask>
<g mask="url(#mask1_5570_3057)">
<path fill-rule="evenodd" clip-rule="evenodd" d="M153.521 58.3342C149.89 63.0953 147.914 65.4197 142.804 65.4197H142.798C141.521 65.4197 140.243 65.4197 138.966 65.4197C137.688 65.4197 136.405 65.4197 135.121 65.4197C132.56 65.4138 129.999 65.4138 127.433 65.4138C127.433 61.5043 130.798 58.3342 134.944 58.3342C134.944 58.3342 144.608 58.3342 150.038 58.3401H153.521V58.3342Z" fill="#006CD8"/>
</g>
<path fill-rule="evenodd" clip-rule="evenodd" d="M93.3535 101.119C94.0633 101.119 94.773 101.119 95.4827 101.119L95.672 95.5716C94.1934 95.5716 93.1998 95.4237 93.1998 95.4296C89.8936 95.4296 87.2203 97.8427 87.2144 100.971V101.119C89.2608 101.119 91.3012 101.119 93.3476 101.119H93.3535Z" fill="#001E57"/>
</g>
<defs>
<clipPath id="clip0_5570_3057">
<rect width="219" height="101.155" fill="white"/>
</clipPath>
</defs>
</svg>
