<svg xmlns="http://www.w3.org/2000/svg" width="102.248" height="24.492"
    viewBox="0 0 102.248 24.492">
    <path id="Union_51" data-name="Union 51"
        d="M54.732,24.492c-.138,0-.218-.007-.221-.007a13.454,13.454,0,0,1-1.871-.335,14.718,14.718,0,0,1-1.831-.577,11.439,11.439,0,0,1-1.976-.99A9.656,9.656,0,0,1,47,20.394a7.956,7.956,0,0,1-1.14-4.7,8.79,8.79,0,0,1,.467-2.272,9.553,9.553,0,0,1,1.125-2.24A9.385,9.385,0,0,1,49.074,9.35a8,8,0,0,1,1.973-1.268,6.281,6.281,0,0,1,2.174-.548c.161-.01.325-.015.487-.015a8.763,8.763,0,0,1,2.328.322,9.841,9.841,0,0,1,2.2.907,10.04,10.04,0,0,1,1.921,1.4,9.17,9.17,0,0,1,1.5,1.8,8,8,0,0,1,.781,1.588,7.008,7.008,0,0,1-.268,5.419,12.381,12.381,0,0,1-.97,1.734,10.025,10.025,0,0,1-1.068,1.33,8.321,8.321,0,0,1-2.212,1.661,7.584,7.584,0,0,1-1.947.684,6.324,6.324,0,0,1-1.24.133h0ZM51.2,10.261a7.256,7.256,0,0,0-1.351,4.129,15.867,15.867,0,0,0,.032,2.571,7.373,7.373,0,0,0,.1.746,11.754,11.754,0,0,0,.483,1.849c1.111,2.33,2.431,3.511,3.921,3.511,1.853,0,3.381-1.835,3.909-2.992.6-3.357.5-5.977-.29-7.79a4.994,4.994,0,0,0-2.146-2.411l-.144-.09a6.034,6.034,0,0,0-2.243-.511h0A2.905,2.905,0,0,0,51.2,10.261Zm32.287,14.2c-1.409-.2-3.391-.711-3.411-.717L78.6,22.11,77.28,23.748H73.563a1.2,1.2,0,0,0,.193-.125,2.194,2.194,0,0,0,.423-.437,3.851,3.851,0,0,0,.656-2.251c.017-.74.024-1.116.022-1.119s-.02.636-.022.709V10.8a2.84,2.84,0,0,1,.18-.483,4.069,4.069,0,0,1,.274-.494,4.247,4.247,0,0,1,.439-.567A4.445,4.445,0,0,1,77.234,8.2a5.529,5.529,0,0,1,1.131-.35,7.342,7.342,0,0,1,1.427-.132,10.777,10.777,0,0,1,1.9.181A16.82,16.82,0,0,1,84,8.5a7.722,7.722,0,0,1,.962.561c.26.176.521.373.776.584a9.1,9.1,0,0,1,.707.645,2.537,2.537,0,0,1,.306.473,1.88,1.88,0,0,1,.167.476,1.147,1.147,0,0,1-.014.534,1.076,1.076,0,0,1-.582.245,8.488,8.488,0,0,1-.983.139c-.677.064-1.33.077-1.336.077a4.176,4.176,0,0,0-.132-.5,5.2,5.2,0,0,0-.5-1.1,3.32,3.32,0,0,0-2.775-1.676c-.1.027-.208.05-.319.075a2.382,2.382,0,0,0-1.37.647,3.607,3.607,0,0,0-.6,2.553,8.986,8.986,0,0,1,0,1.433l4.786,1.33s.2.073.5.217a10.4,10.4,0,0,1,1.182.66,8.34,8.34,0,0,1,1.388,1.115,5.492,5.492,0,0,1,1.118,1.582,4.235,4.235,0,0,1,.38,1.612,4.544,4.544,0,0,1-.064.923,5.516,5.516,0,0,1-.277,1,7.5,7.5,0,0,1-1.64,1.748,3.554,3.554,0,0,1-.87.471,2.7,2.7,0,0,1-.918.163,2.743,2.743,0,0,1-.391-.024Zm-5.142-3.89A15.128,15.128,0,0,0,80.131,21.7a5.311,5.311,0,0,0,2.123.561,1.758,1.758,0,0,0,1.617-.843,2.148,2.148,0,0,0,.282-.843s.051-.056.076-.314a7.786,7.786,0,0,0-.076-1.579,2.359,2.359,0,0,0-.993-1.328,13.309,13.309,0,0,0-1.986-1.275,31.126,31.126,0,0,0-2.825-1.337h0Zm-44.519,3.89a6.861,6.861,0,0,1-.847-.193,5.936,5.936,0,0,1-.767-.28,3.47,3.47,0,0,1-.736-.436c-.87-.693-1.322-1.086-1.325-1.09l-.1-.126L28.56,20.4c0-.012-.1-.307-.22-.787A15.048,15.048,0,0,1,28,17.6a12.488,12.488,0,0,1,.013-2.719,8.759,8.759,0,0,1,.844-2.9A7.182,7.182,0,0,1,30.671,9.69a8.156,8.156,0,0,1,1.392-.935,10.285,10.285,0,0,1,1.769-.734,6.643,6.643,0,0,1,1.363-.11,9.766,9.766,0,0,1,1.446.106,8.136,8.136,0,0,1,1.655.424,6,6,0,0,1,3.038,2.427,11.094,11.094,0,0,1,1.277,2.527,2.456,2.456,0,0,1,.119.679.87.87,0,0,1-.078.394.455.455,0,0,1-.205.21.352.352,0,0,1-.118.036H31a10.174,10.174,0,0,0,.1,1.155,11.41,11.41,0,0,0,.648,2.543,5.223,5.223,0,0,0,4.977,3.7c.08,0,.158,0,.239,0a15.8,15.8,0,0,0,3.047-1.37,2.17,2.17,0,0,0,.629-.507l1.687-2.089.693.483h0c-.011.03-.109.308-.3.72a12.873,12.873,0,0,1-.937,1.689,10.335,10.335,0,0,1-1.637,1.945,7.923,7.923,0,0,1-1.1.845,6.776,6.776,0,0,1-1.3.642c-.516.018-1.118.027-1.792.027C34.811,24.492,33.84,24.464,33.831,24.464ZM33.7,9.5a6.208,6.208,0,0,0-1.1.583,3.021,3.021,0,0,0-1.489,2.245,12.321,12.321,0,0,0-.039,1.26h0a1.465,1.465,0,0,0,.038-.237h7.178a2.484,2.484,0,0,0,.125-.663,2.636,2.636,0,0,0-.329-1.464c-.561-.988-1.777-1.65-3.614-1.966A4.079,4.079,0,0,0,33.7,9.5ZM9.848,23.571C9.292,22.2,4.7,13.16,4.7,13.16L1.761,7.639V24.024H0V3.556H3.6l7.95,15.587L19.464,3.555H22.6l.431,20.468H19.464V7.768L11.279,24.024l-.216.351a.554.554,0,0,1-.336.118C10.486,24.492,10.153,24.322,9.848,23.571Zm81.163.757a3.553,3.553,0,0,1-.87-.471A7.5,7.5,0,0,1,88.5,22.11a5.525,5.525,0,0,1-.277-1,4.548,4.548,0,0,1-.064-.923,4.235,4.235,0,0,1,.38-1.612,5.492,5.492,0,0,1,1.118-1.582,8.328,8.328,0,0,1,1.388-1.115,10.361,10.361,0,0,1,1.182-.66c.29-.137.479-.21.5-.218h0l4.785-1.331a9.036,9.036,0,0,1,0-1.433,3.608,3.608,0,0,0-.6-2.553,2.382,2.382,0,0,0-1.37-.647l-.008,0c-.109-.024-.211-.047-.311-.073a3.32,3.32,0,0,0-2.775,1.676,5.2,5.2,0,0,0-.5,1.1,4.107,4.107,0,0,0-.132.5h0c-.114,0-.713-.019-1.332-.077a8.513,8.513,0,0,1-.983-.139,1.076,1.076,0,0,1-.582-.245,1.147,1.147,0,0,1-.014-.534,1.886,1.886,0,0,1,.167-.477,2.525,2.525,0,0,1,.305-.473,8.992,8.992,0,0,1,.707-.645c.255-.212.516-.408.776-.584a7.724,7.724,0,0,1,.962-.561,16.84,16.84,0,0,1,2.312-.6,10.782,10.782,0,0,1,1.9-.181,7.338,7.338,0,0,1,1.427.133,5.515,5.515,0,0,1,1.131.35,4.445,4.445,0,0,1,1.506,1.061,4.223,4.223,0,0,1,.439.567,4.065,4.065,0,0,1,.274.494,2.867,2.867,0,0,1,.18.483v9.72c0-.035-.02-.707-.023-.709s.005.369.023,1.119a3.85,3.85,0,0,0,.655,2.251,1.835,1.835,0,0,0,.617.563H98.532L97.208,22.11,95.73,23.747h0c-.207.053-2.058.522-3.409.716a2.762,2.762,0,0,1-.391.028,2.7,2.7,0,0,1-.916-.163Zm3.625-8.251a13.315,13.315,0,0,0-1.986,1.275,2.359,2.359,0,0,0-.993,1.328,7.782,7.782,0,0,0-.076,1.579c.025.258.076.313.076.314a1.765,1.765,0,0,0,.048.267,2.157,2.157,0,0,0,.235.576,1.759,1.759,0,0,0,1.617.843A5.31,5.31,0,0,0,95.68,21.7a14.926,14.926,0,0,0,1.782-1.126V14.739a31.21,31.21,0,0,0-2.825,1.339ZM67.3,23.882V1.264L69.42,0h.927l.4,23.882Z"
        fill="#486640" />
</svg>
