<svg width="101" height="100" viewBox="0 0 101 100" fill="none" xmlns="http://www.w3.org/2000/svg">
<rect x="0.5" width="100" height="100" rx="50" fill="#001E57" fill-opacity="0.05"/>
<path fill-rule="evenodd" clip-rule="evenodd" d="M47.92 28.5H54.08C57.286 28.5 59.8 28.5 61.808 28.69C63.854 28.886 65.53 29.29 67.008 30.194C68.556 31.1425 69.8575 32.444 70.806 33.992C71.71 35.468 72.114 37.146 72.31 39.192C72.5 41.2 72.5 43.714 72.5 46.922V49.056C72.5 51.338 72.5 53.128 72.4 54.574C72.3 56.044 72.094 57.268 71.624 58.4C71.0461 59.7953 70.199 61.0631 69.131 62.131C68.0631 63.199 66.7953 64.0461 65.4 64.624C63.79 65.292 61.958 65.44 59.446 65.484C58.8259 65.4818 58.206 65.5058 57.588 65.556C57.192 65.6 57.038 65.664 56.948 65.716C56.854 65.772 56.724 65.872 56.5 66.18C56.258 66.512 55.984 66.972 55.548 67.708L54.464 69.54C52.918 72.154 49.084 72.154 47.536 69.54L46.452 67.708C46.1556 67.1859 45.838 66.6761 45.5 66.18C45.276 65.872 45.146 65.772 45.052 65.716C44.962 65.664 44.808 65.6 44.412 65.556C43.988 65.51 43.432 65.496 42.552 65.482C40.042 65.44 38.21 65.292 36.6 64.624C35.2047 64.0461 33.9369 63.199 32.869 62.131C31.801 61.0631 30.9539 59.7953 30.376 58.4C29.906 57.268 29.7 56.044 29.598 54.574C29.5 53.128 29.5 51.338 29.5 49.054V46.922C29.5 43.714 29.5 41.202 29.69 39.192C29.886 37.146 30.29 35.468 31.194 33.992C32.1425 32.444 33.444 31.1425 34.992 30.194C36.468 29.29 38.146 28.886 40.192 28.69C42.2 28.5 44.714 28.5 47.922 28.5M40.478 31.678C38.65 31.852 37.488 32.184 36.56 32.752C35.4154 33.4532 34.4532 34.4154 33.752 35.56C33.184 36.488 32.852 37.65 32.678 39.48C32.502 41.328 32.5 43.7 32.5 47.002V49.002C32.5 51.352 32.5 53.04 32.592 54.372C32.682 55.69 32.854 56.55 33.148 57.254C34.0107 59.3366 35.6654 60.9913 37.748 61.854C38.778 62.282 40.094 62.442 42.606 62.486H42.668C43.464 62.5 44.162 62.512 44.742 62.576C45.364 62.646 45.974 62.784 46.56 63.124C47.14 63.464 47.56 63.914 47.924 64.414C48.262 64.878 48.608 65.464 49 66.126L50.118 68.014C50.2115 68.1636 50.3415 68.287 50.4958 68.3725C50.6501 68.4581 50.8236 68.5029 51 68.5029C51.1764 68.5029 51.3499 68.4581 51.5042 68.3725C51.6585 68.287 51.7885 68.1636 51.882 68.014L53 66.126C53.392 65.464 53.74 64.878 54.076 64.414C54.44 63.914 54.86 63.462 55.44 63.124C56.026 62.784 56.636 62.644 57.258 62.576C57.838 62.512 58.536 62.5 59.332 62.486H59.396C61.906 62.442 63.222 62.282 64.252 61.854C66.3346 60.9913 67.9893 59.3366 68.852 57.254C69.146 56.55 69.318 55.69 69.408 54.372C69.5 53.04 69.5 51.352 69.5 49.002V47.002C69.5 43.7 69.5 41.328 69.322 39.478C69.148 37.65 68.816 36.488 68.248 35.56C67.5472 34.4164 66.5856 33.4548 65.442 32.754C64.514 32.186 63.352 31.854 61.522 31.68C59.674 31.504 57.302 31.502 54 31.502H48C44.698 31.502 42.326 31.502 40.476 31.68" fill="#001E57"/>
<path d="M45 48C45 48.5304 44.7893 49.0391 44.4142 49.4142C44.0391 49.7893 43.5304 50 43 50C42.4696 50 41.9609 49.7893 41.5858 49.4142C41.2107 49.0391 41 48.5304 41 48C41 47.4696 41.2107 46.9609 41.5858 46.5858C41.9609 46.2107 42.4696 46 43 46C43.5304 46 44.0391 46.2107 44.4142 46.5858C44.7893 46.9609 45 47.4696 45 48ZM53 48C53 48.5304 52.7893 49.0391 52.4142 49.4142C52.0391 49.7893 51.5304 50 51 50C50.4696 50 49.9609 49.7893 49.5858 49.4142C49.2107 49.0391 49 48.5304 49 48C49 47.4696 49.2107 46.9609 49.5858 46.5858C49.9609 46.2107 50.4696 46 51 46C51.5304 46 52.0391 46.2107 52.4142 46.5858C52.7893 46.9609 53 47.4696 53 48ZM61 48C61 48.5304 60.7893 49.0391 60.4142 49.4142C60.0391 49.7893 59.5304 50 59 50C58.4696 50 57.9609 49.7893 57.5858 49.4142C57.2107 49.0391 57 48.5304 57 48C57 47.4696 57.2107 46.9609 57.5858 46.5858C57.9609 46.2107 58.4696 46 59 46C59.5304 46 60.0391 46.2107 60.4142 46.5858C60.7893 46.9609 61 47.4696 61 48Z" fill="#001E57"/>
</svg>
