<svg width="23" height="24" viewBox="0 0 23 24" fill="none" xmlns="http://www.w3.org/2000/svg">
    <path
        d="M2.61069 23.3333C1.93713 23.3333 1.36702 23.1 0.900355 22.6333C0.433689 22.1666 0.200356 21.5965 0.200356 20.923V3.07696C0.200356 2.4034 0.433689 1.83329 0.900355 1.36663C1.36702 0.899959 1.93713 0.666626 2.61069 0.666626H20.4567C21.1302 0.666626 21.7004 0.899959 22.167 1.36663C22.6337 1.83329 22.867 2.4034 22.867 3.07696V20.923C22.867 21.5965 22.6337 22.1666 22.167 22.6333C21.7004 23.1 21.1302 23.3333 20.4567 23.3333H2.61069ZM5.73902 18.3333H17.431C17.6721 18.3333 17.8508 18.2238 17.967 18.005C18.0832 17.7863 18.0652 17.5744 17.913 17.3693L14.7337 13.1103C14.6088 12.9496 14.4481 12.8693 14.2517 12.8693C14.055 12.8693 13.8944 12.9496 13.7697 13.1103L10.508 17.359L8.32335 14.559C8.19869 14.4067 8.04013 14.3306 7.84769 14.3306C7.65547 14.3306 7.49691 14.4111 7.37202 14.572L5.26969 17.3693C5.10902 17.5744 5.0868 17.7863 5.20302 18.005C5.31924 18.2238 5.49791 18.3333 5.73902 18.3333Z"
        fill="#CCCCCC" />
</svg>
