<svg width="29" height="28" viewBox="0 0 29 28" fill="none" xmlns="http://www.w3.org/2000/svg">
<path fill-rule="evenodd" clip-rule="evenodd" d="M2.5 0C1.39543 0 0.5 0.895431 0.5 2V26C0.5 27.1046 1.39543 28 2.5 28H26.5C27.6046 28 28.5 27.1046 28.5 26V2C28.5 0.895431 27.6046 0 26.5 0H2.5ZM22.1258 19.6506L22.1302 19.6566C22.4055 20.0447 22.307 20.5778 21.9102 20.8471C21.5133 21.1167 20.9683 21.0203 20.6928 20.6322C20.6716 20.6022 20.6503 20.5673 20.6335 20.5359C20.1786 19.6712 19.6856 18.8328 19.1473 18.0143C19.0088 17.8039 18.8672 17.5952 18.7231 17.388C18.2101 17.5312 14.0273 18.5936 10.7162 16.1656C7.72518 13.9722 6.87546 9.71392 6.41358 7.39929C6.38553 7.25873 6.35891 7.12533 6.33333 7C6.33333 7 7.65106 7.607 9.54939 7.67542C12.3045 7.77434 14.6684 7.8855 17.0479 9.17808C19.5351 10.5291 20.1215 12.772 20.0766 15.5879C20.0766 15.5879 16.3051 12.3985 13.361 11.6293C15.0893 12.5128 16.6672 13.6919 18.0957 15.0178C18.8454 15.7151 19.5555 16.4555 20.2273 17.2302C20.8981 18.004 21.5339 18.8164 22.1258 19.6506Z" fill="#FC8B1A"/>
</svg>
