<svg width="25" height="24" viewBox="0 0 25 24" fill="none" xmlns="http://www.w3.org/2000/svg">
<mask id="path-1-inside-1_2151_2675" fill="white">
<path fill-rule="evenodd" clip-rule="evenodd" d="M2.5 0C1.39543 0 0.5 0.89543 0.5 2V22C0.5 23.1046 1.39543 24 2.5 24H22.5C23.6046 24 24.5 23.1046 24.5 22V2C24.5 0.895431 23.6046 0 22.5 0H2.5ZM19.0364 16.8433L19.0402 16.8485C19.2761 17.1812 19.1917 17.6381 18.8516 17.869C18.5114 18.1 18.0442 18.0174 17.8081 17.6848C17.79 17.6591 17.7717 17.6291 17.7573 17.6022C17.3674 16.8611 16.9448 16.1424 16.4834 15.4409C16.3647 15.2605 16.2434 15.0816 16.1198 14.904C15.6801 15.0268 12.0948 15.9373 9.25678 13.8562C6.69302 11.9761 5.96469 8.32622 5.56879 6.34225C5.54475 6.22177 5.52194 6.10743 5.50001 6C5.50001 6 6.62949 6.52028 8.25663 6.57893C10.6182 6.66372 12.6443 6.759 14.6839 7.86693C16.8158 9.02493 17.3184 10.9474 17.2799 13.3611C17.2799 13.3611 14.0472 10.6273 11.5237 9.968C13.0051 10.7252 14.3576 11.7359 15.5821 12.8724C16.2246 13.4701 16.8333 14.1047 17.4091 14.7687C17.9841 15.432 18.5291 16.1284 19.0364 16.8433Z"/>
</mask>
<path d="M19.0402 16.8485L20.2636 15.9806L20.2576 15.9722L20.2515 15.9638L19.0402 16.8485ZM19.0364 16.8433L17.8131 17.7114L17.819 17.7197L17.8251 17.728L19.0364 16.8433ZM18.8516 17.869L18.0091 16.628L18.0089 16.628L18.8516 17.869ZM17.8081 17.6848L16.5823 18.5493L16.5849 18.553L17.8081 17.6848ZM17.7573 17.6022L16.4298 18.3006L16.4341 18.3086L17.7573 17.6022ZM16.4834 15.4409L17.7367 14.6166L17.7363 14.616L16.4834 15.4409ZM16.1198 14.904L17.3509 14.0471L16.7424 13.1728L15.7164 13.4593L16.1198 14.904ZM9.25678 13.8562L8.36974 15.0658L8.36977 15.0659L9.25678 13.8562ZM5.56879 6.34225L7.03979 6.04872L7.03979 6.04871L5.56879 6.34225ZM5.50001 6L6.12759 4.63759L3.43814 3.39873L4.03031 6.29998L5.50001 6ZM8.25663 6.57893L8.2026 8.07795L8.2028 8.07796L8.25663 6.57893ZM14.6839 7.86693L13.9679 9.18501L13.9679 9.18503L14.6839 7.86693ZM17.2799 13.3611L16.3113 14.5064L18.7292 16.5511L18.7797 13.385L17.2799 13.3611ZM11.5237 9.968L11.9029 8.51671L10.841 11.3036L11.5237 9.968ZM15.5821 12.8724L16.6037 11.7741L16.6025 11.7729L15.5821 12.8724ZM17.4091 14.7687L18.5425 13.7861L18.5424 13.786L17.4091 14.7687ZM2 2C2 1.72386 2.22386 1.5 2.5 1.5V-1.5C0.567004 -1.5 -1 0.0670024 -1 2H2ZM2 22V2H-1V22H2ZM2.5 22.5C2.22386 22.5 2 22.2761 2 22H-1C-1 23.933 0.567002 25.5 2.5 25.5V22.5ZM22.5 22.5H2.5V25.5H22.5V22.5ZM23 22C23 22.2761 22.7761 22.5 22.5 22.5V25.5C24.433 25.5 26 23.933 26 22H23ZM23 2V22H26V2H23ZM22.5 1.5C22.7761 1.5 23 1.72386 23 2H26C26 0.0670039 24.433 -1.5 22.5 -1.5V1.5ZM2.5 1.5H22.5V-1.5H2.5V1.5ZM20.2515 15.9638L20.2477 15.9586L17.8251 17.728L17.8288 17.7332L20.2515 15.9638ZM19.6942 19.11C20.72 18.4135 20.9925 17.0082 20.2636 15.9806L17.8167 17.7164C17.5598 17.3541 17.6633 16.8627 18.0091 16.628L19.6942 19.11ZM16.5849 18.553C17.2995 19.5597 18.6873 19.7937 19.6943 19.1099L18.0089 16.628C18.3355 16.4063 18.789 16.4752 19.0313 16.8165L16.5849 18.553ZM16.4341 18.3086C16.4756 18.3863 16.526 18.4695 16.5823 18.5493L19.0339 16.8202C19.0455 16.8367 19.054 16.8499 19.0599 16.8597C19.066 16.8695 19.0728 16.8812 19.0806 16.8958L16.4341 18.3086ZM15.2302 16.2651C15.664 16.9247 16.0619 17.6013 16.4299 18.3006L19.0848 16.9037C18.6729 16.1208 18.2256 15.36 17.7367 14.6166L15.2302 16.2651ZM14.8886 15.7609C15.0053 15.9285 15.1193 16.0967 15.2306 16.2657L17.7363 14.616C17.61 14.4242 17.4814 14.2346 17.3509 14.0471L14.8886 15.7609ZM8.36977 15.0659C10.1228 16.3514 12.07 16.6868 13.568 16.7064C15.0674 16.7261 16.2246 16.4321 16.5232 16.3488L15.7164 13.4593C15.5753 13.4987 14.72 13.7213 13.6074 13.7067C12.4933 13.6921 11.2288 13.4422 10.1438 12.6466L8.36977 15.0659ZM4.0978 6.63579C4.29422 7.62012 4.59697 9.15291 5.20501 10.69C5.81154 12.2232 6.77166 13.8939 8.36974 15.0658L10.1438 12.6466C9.17815 11.9385 8.49222 10.8442 7.99467 9.58641C7.49863 8.33251 7.23927 7.04835 7.03979 6.04872L4.0978 6.63579ZM4.03031 6.29998C4.05146 6.40359 4.07361 6.51457 4.0978 6.63579L7.03979 6.04871C7.0159 5.92896 6.99241 5.81127 6.96971 5.70002L4.03031 6.29998ZM8.31066 5.0799C7.64156 5.05579 7.0731 4.93631 6.67641 4.8241C6.47927 4.76834 6.32826 4.71542 6.23282 4.67931C6.18521 4.66129 6.15179 4.64759 6.13377 4.64C6.12477 4.63621 6.11965 4.63397 6.11856 4.63348C6.11801 4.63324 6.11848 4.63345 6.11998 4.63412C6.12073 4.63446 6.12173 4.63492 6.123 4.63549C6.12363 4.63578 6.12433 4.6361 6.1251 4.63645C6.12548 4.63663 6.12588 4.63681 6.12629 4.637C6.1265 4.63709 6.12682 4.63724 6.12693 4.63729C6.12725 4.63744 6.12759 4.63759 5.50001 6C4.87243 7.36241 4.87277 7.36256 4.87312 7.36272C4.87324 7.36278 4.87359 7.36294 4.87383 7.36305C4.87431 7.36327 4.87481 7.3635 4.87533 7.36374C4.87637 7.36421 4.87748 7.36472 4.87867 7.36526C4.88103 7.36634 4.88368 7.36754 4.88662 7.36887C4.89249 7.37151 4.8995 7.37465 4.90762 7.37823C4.92387 7.3854 4.94461 7.39439 4.96967 7.40494C5.01977 7.42603 5.08731 7.45344 5.17101 7.48512C5.33819 7.54838 5.57125 7.6292 5.85987 7.71084C6.4347 7.87344 7.24456 8.04342 8.2026 8.07795L8.31066 5.0799ZM15.3999 6.54884C13.0101 5.25066 10.6418 5.1636 8.31045 5.07989L8.2028 8.07796C10.5946 8.16384 12.2786 8.26734 13.9679 9.18501L15.3999 6.54884ZM18.7797 13.385C18.8004 12.0892 18.6823 10.7673 18.1799 9.56486C17.6578 8.31532 16.7597 7.28746 15.3999 6.54883L13.9679 9.18503C14.74 9.6044 15.1592 10.1168 15.4118 10.7214C15.684 11.3731 15.798 12.2192 15.7801 13.3371L18.7797 13.385ZM11.1446 11.4193C12.1418 11.6798 13.4018 12.4004 14.5033 13.1512C15.0331 13.5123 15.49 13.8551 15.814 14.1073C15.9756 14.233 16.103 14.3354 16.1886 14.4052C16.2314 14.44 16.2636 14.4667 16.2844 14.4839C16.2948 14.4926 16.3023 14.4989 16.3069 14.5027C16.3091 14.5046 16.3106 14.5058 16.3114 14.5065C16.3118 14.5068 16.3119 14.5069 16.3119 14.5069C16.3119 14.5069 16.3119 14.5069 16.3118 14.5068C16.3117 14.5067 16.3116 14.5066 16.3116 14.5066C16.3115 14.5065 16.3113 14.5064 17.2799 13.3611C18.2485 12.2157 18.2483 12.2156 18.2482 12.2154C18.2481 12.2154 18.2479 12.2152 18.2478 12.2151C18.2475 12.2148 18.2471 12.2145 18.2467 12.2142C18.2459 12.2135 18.2449 12.2127 18.2437 12.2117C18.2414 12.2097 18.2382 12.207 18.2343 12.2037C18.2264 12.1971 18.2155 12.188 18.2016 12.1764C18.1738 12.1534 18.1341 12.1206 18.0836 12.0794C17.9825 11.9971 17.8377 11.8808 17.6567 11.7399C17.2958 11.4589 16.7868 11.0771 16.193 10.6723C15.0472 9.89137 13.4292 8.91547 11.9029 8.51671L11.1446 11.4193ZM16.6025 11.7729C15.3019 10.5659 13.8379 9.46631 12.2065 8.63238L10.841 11.3036C12.1723 11.9841 13.4132 12.906 14.5617 13.9718L16.6025 11.7729ZM18.5424 13.786C17.9338 13.0841 17.288 12.4106 16.6037 11.7741L14.5604 13.9707C15.1613 14.5296 15.7329 15.1252 16.2758 15.7514L18.5424 13.786ZM20.2597 15.9753C19.7252 15.2221 19.1504 14.4874 18.5425 13.7861L16.2757 15.7513C16.8178 16.3766 17.3329 17.0346 17.8131 17.7114L20.2597 15.9753Z" fill="#767676" mask="url(#path-1-inside-1_2151_2675)"/>
</svg>
