<svg width="4" height="14" viewBox="0 0 4 14" fill="none" xmlns="http://www.w3.org/2000/svg">
<path d="M1.99998 13.0606C1.65624 13.0606 1.36198 12.9382 1.11719 12.6934C0.872396 12.4487 0.75 12.1544 0.75 11.8106C0.75 11.4669 0.872396 11.1726 1.11719 10.9279C1.36198 10.6831 1.65624 10.5607 1.99998 10.5607C2.34372 10.5607 2.63798 10.6831 2.88277 10.9279C3.12756 11.1726 3.24996 11.4669 3.24996 11.8106C3.24996 12.1544 3.12756 12.4487 2.88277 12.6934C2.63798 12.9382 2.34372 13.0606 1.99998 13.0606ZM1.99998 8.25294C1.65624 8.25294 1.36198 8.13054 1.11719 7.88575C0.872396 7.64096 0.75 7.3467 0.75 7.00296C0.75 6.65922 0.872396 6.36496 1.11719 6.12017C1.36198 5.87538 1.65624 5.75298 1.99998 5.75298C2.34372 5.75298 2.63798 5.87538 2.88277 6.12017C3.12756 6.36496 3.24996 6.65922 3.24996 7.00296C3.24996 7.3467 3.12756 7.64096 2.88277 7.88575C2.63798 8.13054 2.34372 8.25294 1.99998 8.25294ZM1.99998 3.44525C1.65624 3.44525 1.36198 3.32285 1.11719 3.07806C0.872396 2.83329 0.75 2.53902 0.75 2.19527C0.75 1.85154 0.872396 1.55727 1.11719 1.31248C1.36198 1.0677 1.65624 0.945312 1.99998 0.945312C2.34372 0.945312 2.63798 1.0677 2.88277 1.31248C3.12756 1.55727 3.24996 1.85154 3.24996 2.19527C3.24996 2.53902 3.12756 2.83329 2.88277 3.07806C2.63798 3.32285 2.34372 3.44525 1.99998 3.44525Z" fill="black"/>
</svg>
