<svg width="44" height="44" viewBox="0 0 44 44" fill="none" xmlns="http://www.w3.org/2000/svg">
    <path opacity="0.3"
        d="M22 1.35273e-05C26.3512 1.35273e-05 30.6047 1.29029 34.2225 3.70768C37.8404 6.12507 40.6602 9.561 42.3253 13.581C43.9905 17.6009 44.4261 22.0244 43.5773 26.292C42.7284 30.5596 40.6331 34.4796 37.5563 37.5563C34.4796 40.6331 30.5596 42.7284 26.292 43.5773C22.0244 44.4261 17.6009 43.9905 13.581 42.3253C9.561 40.6602 6.12507 37.8404 3.70768 34.2225C1.29029 30.6047 1.35273e-05 26.3512 1.35273e-05 22C-0.00319293 19.11 0.563665 16.2478 1.66813 13.5772C2.7726 10.9066 4.39298 8.48004 6.43651 6.43651C8.48004 4.39298 10.9066 2.7726 13.5772 1.66813C16.2478 0.563665 19.11 -0.00319293 22 1.35273e-05Z"
        fill="white" />
    <path
        d="M31.7644 15.0698L30.4256 16.1986C31.801 17.8278 32.5342 19.9031 32.4874 22.0347C32.4407 24.1663 31.6173 26.2075 30.1719 27.7748L31.4581 28.9998C33.1938 27.119 34.1828 24.669 34.2392 22.1102C34.2956 19.5515 33.4155 17.0603 31.7644 15.1048V15.0698Z"
        fill="white" />
    <path
        d="M26.8825 18.4998C27.7075 19.478 28.1468 20.7239 28.1178 22.0033C28.0888 23.2827 27.5935 24.5074 26.725 25.4473L28.0113 26.6373C29.1688 25.3828 29.8281 23.7487 29.8651 22.0422C29.9022 20.3357 29.3145 18.6745 28.2125 17.371L26.8825 18.4998ZM23.75 34.2498C23.6342 34.2493 23.5197 34.2258 23.4131 34.1808C23.3064 34.1357 23.2098 34.0699 23.1288 33.9873L16.4613 27.2498H10.625C10.3929 27.2498 10.1704 27.1576 10.0063 26.9935C9.84219 26.8294 9.75 26.6068 9.75 26.3748V17.6248C9.75 17.3927 9.84219 17.1701 10.0063 17.006C10.1704 16.8419 10.3929 16.7498 10.625 16.7498H16.4613L23.1288 10.0123C23.2927 9.84929 23.5145 9.75781 23.7456 9.75781C23.9768 9.75781 24.1986 9.84929 24.3625 10.0123C24.5274 10.1738 24.6217 10.394 24.625 10.6248V33.3748C24.625 33.6068 24.5328 33.8294 24.3687 33.9935C24.2046 34.1576 23.9821 34.2498 23.75 34.2498Z"
        fill="white" />
</svg>
