<svg width="101" height="100" viewBox="0 0 101 100" fill="none" xmlns="http://www.w3.org/2000/svg">
<circle cx="50.5" cy="50" r="50" fill="#001E57" fill-opacity="0.06"/>
<path d="M72.8162 46.5351H66.5662C65.9759 46.5351 65.4811 46.3354 65.0818 45.9359C64.6825 45.5364 64.4828 45.0414 64.4828 44.4509C64.4828 43.8604 64.6825 43.3657 65.0818 42.9668C65.4811 42.568 65.9759 42.3686 66.5662 42.3686H72.8162V36.1185C72.8162 35.5282 73.0159 35.0334 73.4154 34.6341C73.8149 34.2349 74.3099 34.0352 74.9004 34.0352C75.4909 34.0352 75.9856 34.2349 76.3845 34.6341C76.7833 35.0334 76.9828 35.5282 76.9828 36.1185V42.3686H83.2328C83.8231 42.3686 84.3178 42.5683 84.7171 42.9677C85.1164 43.3672 85.3161 43.8622 85.3161 44.4527C85.3161 45.0433 85.1164 45.538 84.7171 45.9368C84.3178 46.3357 83.8231 46.5351 83.2328 46.5351H76.9828V52.7852C76.9828 53.3754 76.783 53.8702 76.3835 54.2695C75.9841 54.6688 75.4891 54.8684 74.8985 54.8684C74.308 54.8684 73.8133 54.6688 73.4145 54.2695C73.0156 53.8702 72.8162 53.3754 72.8162 52.7852V46.5351ZM47.4689 49.1526C44.7954 49.1526 42.5066 48.2006 40.6027 46.2968C38.6988 44.3928 37.7468 42.1041 37.7468 39.4305C37.7468 36.7569 38.6988 34.4681 40.6027 32.5642C42.5066 30.6603 44.7954 29.7083 47.4689 29.7083C50.1425 29.7083 52.4313 30.6603 54.3352 32.5642C56.2391 34.4681 57.1911 36.7569 57.1911 39.4305C57.1911 42.1041 56.2391 44.3928 54.3352 46.2968C52.4313 48.2006 50.1425 49.1526 47.4689 49.1526ZM26.6357 66.0864V64.1313C26.6357 62.7709 27.0052 61.5111 27.7441 60.352C28.4831 59.1928 29.4704 58.3016 30.7062 57.6783C33.4519 56.3322 36.2217 55.3226 39.0155 54.6495C41.8093 53.9765 44.6271 53.6399 47.4689 53.6399C50.3108 53.6399 53.1286 53.9765 55.9224 54.6495C58.7162 55.3226 61.486 56.3322 64.2317 57.6783C65.4674 58.3016 66.4548 59.1928 67.1937 60.352C67.9327 61.5111 68.3022 62.7709 68.3022 64.1313V66.0864C68.3022 67.258 67.8918 68.2542 67.0709 69.0751C66.25 69.896 65.2538 70.3064 64.0822 70.3064H30.8557C29.6841 70.3064 28.6878 69.896 27.867 69.0751C27.0462 68.2542 26.6357 67.258 26.6357 66.0864ZM30.8023 66.1398H64.1356V64.1313C64.1356 63.5686 63.9727 63.0477 63.6468 62.5688C63.3209 62.0898 62.8785 61.6989 62.3194 61.3962C59.9262 60.2174 57.486 59.3245 54.9987 58.7172C52.5113 58.1101 50.0014 57.8065 47.4689 57.8065C44.9364 57.8065 42.4265 58.1101 39.9392 58.7172C37.4519 59.3245 35.0117 60.2174 32.6185 61.3962C32.0594 61.6989 31.6169 62.0898 31.2911 62.5688C30.9652 63.0477 30.8023 63.5686 30.8023 64.1313V66.1398ZM47.4689 44.9861C48.9967 44.9861 50.3046 44.4421 51.3925 43.3541C52.4805 42.2661 53.0245 40.9583 53.0245 39.4305C53.0245 37.9027 52.4805 36.5949 51.3925 35.5069C50.3046 34.4189 48.9967 33.8749 47.4689 33.8749C45.9412 33.8749 44.6333 34.4189 43.5453 35.5069C42.4574 36.5949 41.9134 37.9027 41.9134 39.4305C41.9134 40.9583 42.4574 42.2661 43.5453 43.3541C44.6333 44.4421 45.9412 44.9861 47.4689 44.9861Z" fill="#001E57"/>
</svg>
