<svg width="28" height="28" viewBox="0 0 28 28" fill="none" xmlns="http://www.w3.org/2000/svg">
<path d="M8.07448 14.5831L14.4194 20.928C14.533 21.0417 14.5925 21.1756 14.5977 21.3296C14.603 21.4837 14.5413 21.625 14.4126 21.7536C14.284 21.8778 14.1464 21.941 13.9998 21.9432C13.8532 21.9455 13.7156 21.8823 13.587 21.7536L6.49274 14.6594C6.39103 14.5577 6.31961 14.4538 6.27848 14.3475C6.23736 14.2414 6.2168 14.1254 6.2168 13.9998C6.2168 13.8741 6.23736 13.7582 6.27848 13.652C6.31961 13.5458 6.39103 13.4419 6.49274 13.3402L13.587 6.24595C13.6962 6.13675 13.8289 6.07842 13.9852 6.07095C14.1415 6.06346 14.284 6.1218 14.4126 6.24595C14.5413 6.37458 14.6056 6.5133 14.6056 6.66213C14.6056 6.81096 14.5413 6.94969 14.4126 7.07831L8.07448 13.4165H21.5831C21.7492 13.4165 21.8879 13.4722 21.9993 13.5836C22.1108 13.695 22.1665 13.8338 22.1665 13.9998C22.1665 14.1658 22.1108 14.3046 21.9993 14.416C21.8879 14.5274 21.7492 14.5831 21.5831 14.5831H8.07448Z" fill="black"/>
</svg>
