<svg width="375" height="187" viewBox="0 0 375 187" fill="none" xmlns="http://www.w3.org/2000/svg">
<rect width="375" height="187" fill="white"/>
<path fill-rule="evenodd" clip-rule="evenodd" d="M261.972 35.8274C249.957 52.526 243.437 60.6695 226.527 60.6695C209.617 60.6695 192.663 60.6361 175.72 60.6361C166.986 50.0674 151.334 48.5766 140.765 57.3097L147.473 65.431C130.574 65.431 124.055 73.5856 112.04 90.2731C130.752 90.2731 149.453 90.2842 168.177 90.2842L188.102 114.081C197.18 125.261 196.59 142.06 191.384 152.206C209.495 138.422 221.276 115.104 204.177 94.6897L200.539 90.351L210.808 90.3065C227.718 90.3065 234.237 82.163 246.252 65.4644C224.08 65.4644 201.908 65.4532 179.725 65.4421L175.708 60.6472C175.708 46.9301 186.822 35.8162 200.539 35.8162C200.539 35.794 256.832 35.8274 261.972 35.8274Z" fill="#E4E4E4"/>
</svg>
