<svg width="20" height="20" viewBox="0 0 20 20" fill="none" xmlns="http://www.w3.org/2000/svg">
<path fill-rule="evenodd" clip-rule="evenodd" d="M8.71699 1.04175H11.2837C12.6195 1.04175 13.667 1.04175 14.5037 1.12091C15.3562 1.20258 16.0545 1.37091 16.6703 1.74758C17.3153 2.14277 17.8576 2.68506 18.2528 3.33008C18.6295 3.94508 18.7978 4.64425 18.8795 5.49675C18.9587 6.33341 18.9587 7.38092 18.9587 8.71758V9.60675C18.9587 10.5576 18.9587 11.3034 18.917 11.9059C18.8753 12.5184 18.7895 13.0284 18.5937 13.5001C18.3529 14.0815 17.9999 14.6097 17.5549 15.0547C17.11 15.4996 16.5817 15.8526 16.0003 16.0934C15.3295 16.3717 14.5662 16.4334 13.5195 16.4517C13.2611 16.4508 13.0028 16.4608 12.7453 16.4817C12.5803 16.5001 12.5162 16.5267 12.4787 16.5484C12.4395 16.5717 12.3853 16.6134 12.292 16.7417C12.1912 16.8801 12.077 17.0717 11.8953 17.3784L11.4437 18.1417C10.7995 19.2309 9.20199 19.2309 8.55699 18.1417L8.10533 17.3784C7.98185 17.1609 7.84951 16.9485 7.70866 16.7417C7.61533 16.6134 7.56116 16.5717 7.52199 16.5484C7.48449 16.5267 7.42033 16.5001 7.25533 16.4817C7.07866 16.4626 6.84699 16.4567 6.48033 16.4509C5.43449 16.4334 4.67116 16.3717 4.00033 16.0934C3.41895 15.8526 2.89069 15.4996 2.44572 15.0547C2.00076 14.6097 1.6478 14.0815 1.40699 13.5001C1.21116 13.0284 1.12533 12.5184 1.08283 11.9059C1.04199 11.3034 1.04199 10.5576 1.04199 9.60592V8.71758C1.04199 7.38092 1.04199 6.33425 1.12116 5.49675C1.20283 4.64425 1.37116 3.94508 1.74783 3.33008C2.14302 2.68506 2.68531 2.14277 3.33033 1.74758C3.94533 1.37091 4.64449 1.20258 5.49699 1.12091C6.33366 1.04175 7.38116 1.04175 8.71783 1.04175M5.61616 2.36591C4.85449 2.43841 4.37033 2.57675 3.98366 2.81341C3.50675 3.10556 3.10581 3.50651 2.81366 3.98341C2.57699 4.37008 2.43866 4.85425 2.36616 5.61675C2.29283 6.38675 2.29199 7.37508 2.29199 8.75092V9.58425C2.29199 10.5634 2.29199 11.2667 2.33033 11.8217C2.36783 12.3709 2.43949 12.7292 2.56199 13.0226C2.92145 13.8903 3.61089 14.5798 4.47866 14.9392C4.90783 15.1176 5.45616 15.1842 6.50283 15.2026H6.52866C6.86033 15.2084 7.15116 15.2134 7.39283 15.2401C7.65199 15.2692 7.90616 15.3267 8.15033 15.4684C8.39199 15.6101 8.56699 15.7976 8.71866 16.0059C8.85949 16.1992 9.00366 16.4434 9.16699 16.7192L9.63282 17.5059C9.67177 17.5683 9.72594 17.6197 9.79023 17.6553C9.85452 17.6909 9.92682 17.7096 10.0003 17.7096C10.0738 17.7096 10.1461 17.6909 10.2104 17.6553C10.2747 17.6197 10.3289 17.5683 10.3678 17.5059L10.8337 16.7192C10.997 16.4434 11.142 16.1992 11.282 16.0059C11.4337 15.7976 11.6087 15.6092 11.8503 15.4684C12.0945 15.3267 12.3487 15.2684 12.6078 15.2401C12.8495 15.2134 13.1403 15.2084 13.472 15.2026H13.4987C14.5445 15.1842 15.0928 15.1176 15.522 14.9392C16.3898 14.5798 17.0792 13.8903 17.4387 13.0226C17.5612 12.7292 17.6328 12.3709 17.6703 11.8217C17.7087 11.2667 17.7087 10.5634 17.7087 9.58425V8.75092C17.7087 7.37508 17.7087 6.38675 17.6345 5.61591C17.562 4.85425 17.4237 4.37008 17.187 3.98341C16.895 3.5069 16.4943 3.10627 16.0178 2.81425C15.6312 2.57758 15.147 2.43925 14.3845 2.36675C13.6145 2.29341 12.6262 2.29258 11.2503 2.29258H8.75033C7.37449 2.29258 6.38616 2.29258 5.61533 2.36675M6.04199 7.50008C6.04199 7.33432 6.10784 7.17535 6.22505 7.05814C6.34226 6.94093 6.50123 6.87508 6.66699 6.87508H13.3337C13.4994 6.87508 13.6584 6.94093 13.7756 7.05814C13.8928 7.17535 13.9587 7.33432 13.9587 7.50008C13.9587 7.66584 13.8928 7.82481 13.7756 7.94202C13.6584 8.05923 13.4994 8.12508 13.3337 8.12508H6.66699C6.50123 8.12508 6.34226 8.05923 6.22505 7.94202C6.10784 7.82481 6.04199 7.66584 6.04199 7.50008ZM6.04199 10.4167C6.04199 10.251 6.10784 10.092 6.22505 9.97481C6.34226 9.8576 6.50123 9.79175 6.66699 9.79175H11.2503C11.4161 9.79175 11.5751 9.8576 11.6923 9.97481C11.8095 10.092 11.8753 10.251 11.8753 10.4167C11.8753 10.5825 11.8095 10.7415 11.6923 10.8587C11.5751 10.9759 11.4161 11.0417 11.2503 11.0417H6.66699C6.50123 11.0417 6.34226 10.9759 6.22505 10.8587C6.10784 10.7415 6.04199 10.5825 6.04199 10.4167Z" fill="#333333"/>
</svg>
