<svg width="68" height="68" viewBox="0 0 68 68" fill="none" xmlns="http://www.w3.org/2000/svg">
<path d="M50.8162 30.5351H44.5662C43.9759 30.5351 43.4811 30.3354 43.0818 29.9359C42.6825 29.5364 42.4828 29.0414 42.4828 28.4509C42.4828 27.8604 42.6825 27.3657 43.0818 26.9668C43.4811 26.568 43.9759 26.3686 44.5662 26.3686H50.8162V20.1185C50.8162 19.5282 51.0159 19.0334 51.4154 18.6341C51.8149 18.2349 52.3099 18.0352 52.9004 18.0352C53.4909 18.0352 53.9856 18.2349 54.3845 18.6341C54.7833 19.0334 54.9828 19.5282 54.9828 20.1185V26.3686H61.2328C61.8231 26.3686 62.3178 26.5683 62.7171 26.9677C63.1164 27.3672 63.3161 27.8622 63.3161 28.4527C63.3161 29.0433 63.1164 29.538 62.7171 29.9368C62.3178 30.3357 61.8231 30.5351 61.2328 30.5351H54.9828V36.7852C54.9828 37.3754 54.783 37.8702 54.3835 38.2695C53.9841 38.6688 53.4891 38.8684 52.8985 38.8684C52.308 38.8684 51.8133 38.6688 51.4145 38.2695C51.0156 37.8702 50.8162 37.3754 50.8162 36.7852V30.5351ZM25.4689 33.1526C22.7954 33.1526 20.5066 32.2006 18.6027 30.2968C16.6988 28.3928 15.7468 26.1041 15.7468 23.4305C15.7468 20.7569 16.6988 18.4681 18.6027 16.5642C20.5066 14.6603 22.7954 13.7083 25.4689 13.7083C28.1425 13.7083 30.4313 14.6603 32.3352 16.5642C34.2391 18.4681 35.1911 20.7569 35.1911 23.4305C35.1911 26.1041 34.2391 28.3928 32.3352 30.2968C30.4313 32.2006 28.1425 33.1526 25.4689 33.1526ZM4.63574 50.0864V48.1313C4.63574 46.7709 5.00519 45.5111 5.74408 44.352C6.48306 43.1928 7.47042 42.3016 8.70616 41.6783C11.4519 40.3322 14.2217 39.3226 17.0155 38.6495C19.8093 37.9765 22.6271 37.6399 25.4689 37.6399C28.3108 37.6399 31.1286 37.9765 33.9224 38.6495C36.7162 39.3226 39.486 40.3322 42.2317 41.6783C43.4674 42.3016 44.4548 43.1928 45.1937 44.352C45.9327 45.5111 46.3022 46.7709 46.3022 48.1313V50.0864C46.3022 51.258 45.8918 52.2542 45.0709 53.0751C44.25 53.896 43.2538 54.3064 42.0822 54.3064H8.85567C7.68405 54.3064 6.68783 53.896 5.86699 53.0751C5.04616 52.2542 4.63574 51.258 4.63574 50.0864ZM8.80227 50.1398H42.1356V48.1313C42.1356 47.5686 41.9727 47.0477 41.6468 46.5688C41.3209 46.0898 40.8785 45.6989 40.3194 45.3962C37.9262 44.2174 35.486 43.3245 32.9987 42.7172C30.5113 42.1101 28.0014 41.8065 25.4689 41.8065C22.9364 41.8065 20.4265 42.1101 17.9392 42.7172C15.4519 43.3245 13.0117 44.2174 10.6185 45.3962C10.0594 45.6989 9.61692 46.0898 9.29109 46.5688C8.96521 47.0477 8.80227 47.5686 8.80227 48.1313V50.1398ZM25.4689 28.9861C26.9967 28.9861 28.3046 28.4421 29.3925 27.3541C30.4805 26.2661 31.0245 24.9583 31.0245 23.4305C31.0245 21.9027 30.4805 20.5949 29.3925 19.5069C28.3046 18.4189 26.9967 17.8749 25.4689 17.8749C23.9412 17.8749 22.6333 18.4189 21.5453 19.5069C20.4574 20.5949 19.9134 21.9027 19.9134 23.4305C19.9134 24.9583 20.4574 26.2661 21.5453 27.3541C22.6333 28.4421 23.9412 28.9861 25.4689 28.9861Z" fill="white"/>
</svg>
