<svg width="28" height="28" viewBox="0 0 28 28" fill="none" xmlns="http://www.w3.org/2000/svg">
<mask id="mask0_4737_8877" style="mask-type:alpha" maskUnits="userSpaceOnUse" x="0" y="0" width="28" height="28">
<rect width="28" height="28" fill="#D9D9D9"/>
</mask>
<g mask="url(#mask0_4737_8877)">
<path d="M14 20.4167C15.4583 20.4167 16.6979 19.9062 17.7187 18.8854C18.7396 17.8646 19.25 16.625 19.25 15.1667C19.25 13.7083 18.7396 12.4688 17.7187 11.4479C16.6979 10.4271 15.4583 9.91667 14 9.91667C12.5416 9.91667 11.3021 10.4271 10.2812 11.4479C9.2604 12.4688 8.74998 13.7083 8.74998 15.1667C8.74998 16.625 9.2604 17.8646 10.2812 18.8854C11.3021 19.9062 12.5416 20.4167 14 20.4167ZM14 18.0833C13.1833 18.0833 12.493 17.8014 11.9291 17.2375C11.3653 16.6736 11.0833 15.9833 11.0833 15.1667C11.0833 14.35 11.3653 13.6597 11.9291 13.0958C12.493 12.5319 13.1833 12.25 14 12.25C14.8166 12.25 15.5069 12.5319 16.0708 13.0958C16.6347 13.6597 16.9166 14.35 16.9166 15.1667C16.9166 15.9833 16.6347 16.6736 16.0708 17.2375C15.5069 17.8014 14.8166 18.0833 14 18.0833ZM4.66665 24.5C4.02498 24.5 3.47567 24.2715 3.01873 23.8146C2.56179 23.3576 2.33331 22.8083 2.33331 22.1667V8.16667C2.33331 7.525 2.56179 6.97569 3.01873 6.51875C3.47567 6.06181 4.02498 5.83333 4.66665 5.83333H8.34165L10.5 3.5H17.5L19.6583 5.83333H23.3333C23.975 5.83333 24.5243 6.06181 24.9812 6.51875C25.4382 6.97569 25.6666 7.525 25.6666 8.16667V22.1667C25.6666 22.8083 25.4382 23.3576 24.9812 23.8146C24.5243 24.2715 23.975 24.5 23.3333 24.5H4.66665Z" fill="#969696"/>
</g>
</svg>
