<svg width="28" height="28" viewBox="0 0 28 28" fill="none" xmlns="http://www.w3.org/2000/svg">
    <path
        d="M4 6.57008C4 5.35802 4.40087 4.1956 5.11442 3.33855C5.82797 2.48149 6.79575 2 7.80487 2H21.1875C22.1966 2 23.1644 2.48149 23.8779 3.33855C24.5915 4.1956 24.9924 5.35802 24.9924 6.57008V16.3406C24.9924 17.5527 24.5915 18.7151 23.8779 19.5721C23.1644 20.4292 22.1966 20.9107 21.1875 20.9107H15.7542L10.06 25.738C9.27853 26.4011 8.19847 25.7291 8.19847 24.5794V20.9107H7.80487C6.79575 20.9107 5.82797 20.4292 5.11442 19.5721C4.40087 18.7151 4 17.5527 4 16.3406V6.57008Z"
        fill="white" />
</svg>
