<svg width="33" height="32" viewBox="0 0 33 32" fill="none" xmlns="http://www.w3.org/2000/svg">
<path d="M9.16667 26C7.324 26 5.75222 25.3598 4.45133 24.0793C3.15044 22.7991 2.5 21.2377 2.5 19.395C2.5 17.7641 3.02222 16.3137 4.06667 15.0437C5.11111 13.7734 6.44356 13.0221 8.064 12.7897C8.49133 10.7966 9.49356 9.16667 11.0707 7.9C12.6476 6.63333 14.4573 6 16.5 6C18.912 6 20.9594 6.84144 22.6423 8.52433C24.3252 10.2072 25.1667 12.2547 25.1667 14.6667V15.3333H25.577C26.9821 15.4427 28.1539 16.0077 29.0923 17.0283C30.0308 18.0488 30.5 19.2616 30.5 20.6667C30.5 22.1538 29.9829 23.4144 28.9487 24.4487C27.9144 25.4829 26.6538 26 25.1667 26H17.5V16.287L19.277 18.0437C19.4617 18.2281 19.6902 18.3203 19.9627 18.3203C20.2353 18.3203 20.4709 18.2212 20.6693 18.023C20.8624 17.8383 20.9569 17.6042 20.9527 17.3207C20.9482 17.0369 20.8538 16.8027 20.6693 16.618L17.3437 13.2923C17.1026 13.0512 16.8213 12.9307 16.5 12.9307C16.1787 12.9307 15.8974 13.0512 15.6563 13.2923L12.3307 16.618C12.1462 16.8027 12.0484 17.0334 12.0373 17.3103C12.0262 17.5872 12.124 17.8248 12.3307 18.023C12.5153 18.2077 12.7461 18.3012 13.023 18.3037C13.2999 18.3063 13.5376 18.2153 13.736 18.0307L15.5 16.287V26H9.16667Z" fill="#CCCCCC"/>
</svg>
