<svg width="24" height="25" viewBox="0 0 24 25" fill="none" xmlns="http://www.w3.org/2000/svg">
<path d="M8 16.5H15.263C19.751 16.5 20.433 13.68 21.261 9.57C21.5 8.383 21.619 7.79 21.332 7.395C21.045 7 20.495 7 19.394 7H6" stroke="#0F1E91" stroke-width="1.5" stroke-linecap="round" stroke-linejoin="round"/>
<path d="M8 16.5L5.379 4.015C5.27085 3.58232 5.02118 3.19821 4.66967 2.9237C4.31816 2.6492 3.88499 2.50007 3.439 2.5H2.5M8.88 16.5H8.469C7.105 16.5 6 17.651 6 19.071C5.99881 19.1262 6.00849 19.181 6.0285 19.2324C6.04851 19.2838 6.07846 19.3308 6.11662 19.3706C6.15479 19.4105 6.20043 19.4424 6.25094 19.4646C6.30145 19.4868 6.35584 19.4988 6.411 19.5H17.5" stroke="#0F1E91" stroke-width="1.5" stroke-linecap="round" stroke-linejoin="round"/>
<path d="M10.5 22.5C11.3284 22.5 12 21.8284 12 21C12 20.1716 11.3284 19.5 10.5 19.5C9.67157 19.5 9 20.1716 9 21C9 21.8284 9.67157 22.5 10.5 22.5Z" stroke="#0F1E91" stroke-width="1.5" stroke-linecap="round" stroke-linejoin="round"/>
<path d="M17.5 22.5C18.3284 22.5 19 21.8284 19 21C19 20.1716 18.3284 19.5 17.5 19.5C16.6716 19.5 16 20.1716 16 21C16 21.8284 16.6716 22.5 17.5 22.5Z" stroke="#0F1E91" stroke-width="1.5" stroke-linecap="round" stroke-linejoin="round"/>
</svg>
