<svg width="28" height="28" viewBox="0 0 18 20" fill="none" xmlns="http://www.w3.org/2000/svg">
    <path
        d="M8.25 17.569V10.4305L1.99997 6.81125V13.7766C1.99997 13.8279 2.0128 13.876 2.03845 13.9209C2.06408 13.9658 2.10254 14.0042 2.15382 14.0363L8.25 17.569ZM9.74995 17.569L15.8461 14.0363C15.8974 14.0042 15.9359 13.9658 15.9615 13.9209C15.9871 13.876 16 13.8279 16 13.7766V6.81125L9.74995 10.4305V17.569ZM8.99997 9.1382L15.175 5.56898L9.15382 2.08628C9.10254 2.05423 9.05126 2.0382 8.99997 2.0382C8.94869 2.0382 8.89741 2.05423 8.84612 2.08628L2.82495 5.56898L8.99997 9.1382ZM1.40385 15.3536C1.11923 15.1895 0.897441 14.9702 0.738475 14.6959C0.579491 14.4215 0.5 14.1202 0.5 13.792V6.20743C0.5 5.87923 0.579491 5.57795 0.738475 5.3036C0.897441 5.02924 1.11923 4.81 1.40385 4.6459L8.09612 0.794002C8.38074 0.629902 8.68202 0.547852 8.99997 0.547852C9.31792 0.547852 9.61921 0.629902 9.90382 0.794002L16.5961 4.6459C16.8807 4.81 17.1025 5.02924 17.2615 5.3036C17.4205 5.57795 17.5 5.87923 17.5 6.20743V13.792C17.5 14.1202 17.4205 14.4215 17.2615 14.6959C17.1025 14.9702 16.8807 15.1895 16.5961 15.3536L9.90382 19.2055C9.61921 19.3696 9.31792 19.4516 8.99997 19.4516C8.68202 19.4516 8.38074 19.3696 8.09612 19.2055L1.40385 15.3536Z"
        fill="#8B8B8B"></path>
</svg>