<svg width="33" height="33" viewBox="0 0 33 33" fill="none" xmlns="http://www.w3.org/2000/svg">
<path d="M28.875 16.5V26.125C28.875 26.8543 28.5853 27.5538 28.0695 28.0695C27.5538 28.5853 26.8543 28.875 26.125 28.875H6.875C6.14565 28.875 5.44618 28.5853 4.93046 28.0695C4.41473 27.5538 4.125 26.8543 4.125 26.125V6.875C4.125 6.14565 4.41473 5.44618 4.93046 4.93046C5.44618 4.41473 6.14565 4.125 6.875 4.125H16.5" stroke="#006CD8" stroke-width="2" stroke-linecap="round" stroke-linejoin="round"/>
<path d="M22 6.875H30.25" stroke="#006CD8" stroke-width="2" stroke-linecap="round" stroke-linejoin="round"/>
<path d="M26.125 2.75V11" stroke="#006CD8" stroke-width="2" stroke-linecap="round" stroke-linejoin="round"/>
<path d="M12.375 15.125C13.8938 15.125 15.125 13.8938 15.125 12.375C15.125 10.8562 13.8938 9.625 12.375 9.625C10.8562 9.625 9.625 10.8562 9.625 12.375C9.625 13.8938 10.8562 15.125 12.375 15.125Z" stroke="#006CD8" stroke-width="2" stroke-linecap="round" stroke-linejoin="round"/>
<path d="M28.875 20.6246L24.6317 16.3813C24.116 15.8658 23.4167 15.5762 22.6875 15.5762C21.9583 15.5762 21.259 15.8658 20.7433 16.3813L8.25 28.8746" stroke="#006CD8" stroke-width="2" stroke-linecap="round" stroke-linejoin="round"/>
</svg>
