<svg width="28" height="28" viewBox="0 0 28 28" fill="none" xmlns="http://www.w3.org/2000/svg">
<mask id="mask0_4740_8896" style="mask-type:alpha" maskUnits="userSpaceOnUse" x="0" y="0" width="28" height="28">
<rect width="28" height="28" fill="#D9D9D9"/>
</mask>
<g mask="url(#mask0_4740_8896)">
<path d="M4.61065 25.3333C3.93709 25.3333 3.36698 25.1 2.90032 24.6333C2.43365 24.1666 2.20032 23.5965 2.20032 22.923V5.07696C2.20032 4.4034 2.43365 3.83329 2.90032 3.36663C3.36698 2.89996 3.93709 2.66663 4.61065 2.66663H22.4566C23.1302 2.66663 23.7003 2.89996 24.167 3.36663C24.6336 3.83329 24.867 4.4034 24.867 5.07696V22.923C24.867 23.5965 24.6336 24.1666 24.167 24.6333C23.7003 25.1 23.1302 25.3333 22.4566 25.3333H4.61065ZM7.73898 20.3333H19.431C19.6721 20.3333 19.8508 20.2238 19.967 20.005C20.0832 19.7863 20.0652 19.5744 19.913 19.3693L16.7337 15.1103C16.6088 14.9496 16.4481 14.8693 16.2516 14.8693C16.055 14.8693 15.8943 14.9496 15.7697 15.1103L12.508 19.359L10.3233 16.559C10.1987 16.4067 10.0401 16.3306 9.84765 16.3306C9.65543 16.3306 9.49687 16.4111 9.37198 16.572L7.26965 19.3693C7.10898 19.5744 7.08676 19.7863 7.20298 20.005C7.31921 20.2238 7.49787 20.3333 7.73898 20.3333Z" fill="#969696"/>
</g>
</svg>
