<svg width="20" height="20" viewBox="0 0 20 20" fill="none" xmlns="http://www.w3.org/2000/svg">
    <path d="M9.50042 4.81721L10.0007 5.48751L10.5017 4.81779C11.231 3.84305 12.3991 3.21005 13.7013 3.21005C15.9115 3.21005 17.7096 5.01064 17.7096 7.24339C17.7096 8.16708 17.5624 9.0189 17.3066 9.80933L17.3053 9.8134C16.6918 11.7551 15.4317 13.3273 14.0616 14.5048C12.6888 15.6847 11.2414 16.4371 10.3166 16.7517L10.3166 16.7517L10.31 16.754C10.256 16.7731 10.1441 16.7934 10.0013 16.7934C9.85848 16.7934 9.74662 16.7731 9.69265 16.754L9.69266 16.754L9.68596 16.7517C8.76121 16.4371 7.3138 15.6847 5.94096 14.5048C4.57087 13.3273 3.31084 11.7551 2.69726 9.8134L2.69727 9.81339L2.69595 9.80933C2.44023 9.0189 2.29297 8.16708 2.29297 7.24339C2.29297 5.01078 4.09084 3.21027 6.3009 3.21005C6.92235 3.21089 7.53505 3.35655 8.0904 3.63548C8.64586 3.91446 9.12864 4.31908 9.50042 4.81721Z" stroke="#ED3460" stroke-width="1.25" fill="#ED3460"/>
</svg>
