<svg width="18" height="16" viewBox="0 0 18 16" fill="none" xmlns="http://www.w3.org/2000/svg">
<path d="M12.7013 0.584991C11.193 0.584991 9.84297 1.31832 9.0013 2.44332C8.57141 1.86734 8.01318 1.39948 7.37091 1.0769C6.72865 0.754323 6.02003 0.585896 5.3013 0.584991C2.74297 0.584991 0.667969 2.66832 0.667969 5.24332C0.667969 6.23499 0.826302 7.15166 1.1013 8.00166C2.41797 12.1683 6.4763 14.66 8.48463 15.3433C8.76797 15.4433 9.23463 15.4433 9.51797 15.3433C11.5263 14.66 15.5846 12.1683 16.9013 8.00166C17.1763 7.15166 17.3346 6.23499 17.3346 5.24332C17.3346 2.66832 15.2596 0.584991 12.7013 0.584991Z" fill="#ED3460"/>
</svg>
