<svg width="31" height="33" viewBox="0 0 31 33" fill="none" xmlns="http://www.w3.org/2000/svg">
    <g filter="url(#filter0_d_14985_4515)">
        <path
            d="M10.7729 4C7.58469 4 5 6.86955 5 10.4091C5 16.8183 11.8225 22.6448 15.4962 24C19.1698 22.6448 25.9924 16.8183 25.9924 10.4091C25.9924 6.86955 23.4077 4 20.2195 4C18.2672 4 16.5406 5.07615 15.4962 6.7233C14.9638 5.8816 14.2566 5.19467 13.4344 4.72064C12.6122 4.2466 11.6993 3.99942 10.7729 4Z"
            fill="white" />
        <path
            d="M10.7729 4C7.58469 4 5 6.86955 5 10.4091C5 16.8183 11.8225 22.6448 15.4962 24C19.1698 22.6448 25.9924 16.8183 25.9924 10.4091C25.9924 6.86955 23.4077 4 20.2195 4C18.2672 4 16.5406 5.07615 15.4962 6.7233C14.9638 5.8816 14.2566 5.19467 13.4344 4.72064C12.6122 4.2466 11.6993 3.99942 10.7729 4Z"
            stroke="white" stroke-width="2" stroke-linecap="round" stroke-linejoin="round" />
    </g>
    <defs>
        <filter id="filter0_d_14985_4515" x="0" y="3" width="30.9923" height="30"
            filterUnits="userSpaceOnUse" color-interpolation-filters="sRGB">
            <feFlood flood-opacity="0" result="BackgroundImageFix" />
            <feColorMatrix in="SourceAlpha" type="matrix"
                values="0 0 0 0 0 0 0 0 0 0 0 0 0 0 0 0 0 0 127 0" result="hardAlpha" />
            <feOffset dy="4" />
            <feGaussianBlur stdDeviation="2" />
            <feComposite in2="hardAlpha" operator="out" />
            <feColorMatrix type="matrix" values="0 0 0 0 0 0 0 0 0 0 0 0 0 0 0 0 0 0 0.25 0" />
            <feBlend mode="normal" in2="BackgroundImageFix"
                result="effect1_dropShadow_14985_4515" />
            <feBlend mode="normal" in="SourceGraphic" in2="effect1_dropShadow_14985_4515"
                result="shape" />
        </filter>
    </defs>
</svg>
