<svg width="28" height="28" viewBox="0 0 28 28" fill="none" xmlns="http://www.w3.org/2000/svg">
<g clip-path="url(#clip0_4731_6495)">
<path fill-rule="evenodd" clip-rule="evenodd" d="M11.2793 20.7988C11.4153 20.9281 11.5948 21 11.7813 20.9998C11.9338 21.0045 12.084 20.9612 12.2112 20.8759C12.3385 20.7906 12.4365 20.6676 12.4918 20.5236C12.5472 20.3796 12.5572 20.2219 12.5204 20.0719C12.4836 19.922 12.4019 19.7873 12.2864 19.6863L6.71691 14.4461H22.5817C22.7777 14.4461 22.9657 14.3672 23.1043 14.2269C23.243 14.0865 23.3208 13.8961 23.3208 13.6976C23.3208 13.4991 23.243 13.3088 23.1043 13.1684C22.9657 13.0281 22.7777 12.9492 22.5817 12.9492H6.72411L12.2864 7.71669C12.4303 7.58159 12.5154 7.39414 12.5228 7.19557C12.5302 6.997 12.4594 6.80358 12.326 6.65785C12.1926 6.51212 12.0075 6.42603 11.8114 6.41851C11.6153 6.41099 11.4243 6.48265 11.2804 6.61775L4.37238 13.1154C4.35215 13.1319 4.3327 13.1496 4.31414 13.1684C4.17553 13.3088 4.09766 13.4991 4.09766 13.6976C4.09766 13.8961 4.17553 14.0865 4.31414 14.2269C4.32049 14.2333 4.32694 14.2396 4.33349 14.2458C4.33421 14.2464 4.33493 14.2471 4.33566 14.2478L11.2793 20.7988Z" fill="#373737"/>
</g>
<defs>
<clipPath id="clip0_4731_6495">
<rect width="19.2232" height="14.5831" fill="white" transform="translate(4.09766 6.41797)"/>
</clipPath>
</defs>
</svg>
