<svg width="24" height="24" viewBox="0 0 18 24" fill="none" xmlns="http://www.w3.org/2000/svg"><path d="M2.35904 23.0833C1.77901 23.0833 1.2825 22.8768 0.8695 22.4638C0.4565 22.0508 0.25 21.5543 0.25 20.9743V10.0257C0.25 9.44569 0.4565 8.94918 0.8695 8.53618C1.2825 8.12318 1.77901 7.91668 2.35904 7.91668H3.75V5.58334C3.75 4.12657 4.26081 2.88737 5.28242 1.86576C6.30403 0.844148 7.54322 0.333344 9 0.333344C10.4568 0.333344 11.696 0.844148 12.7176 1.86576C13.7392 2.88737 14.25 4.12657 14.25 5.58334V7.91668H15.641C16.221 7.91668 16.7175 8.12318 17.1305 8.53618C17.5435 8.94918 17.75 9.44569 17.75 10.0257V20.9743C17.75 21.5543 17.5435 22.0508 17.1305 22.4638C16.7175 22.8768 16.221 23.0833 15.641 23.0833H2.35904ZM9 17.5417C9.56681 17.5417 10.0488 17.3431 10.4461 16.9461C10.8431 16.5488 11.0417 16.0668 11.0417 15.5C11.0417 14.9332 10.8431 14.4512 10.4461 14.0539C10.0488 13.6569 9.56681 13.4583 9 13.4583C8.43319 13.4583 7.95117 13.6569 7.55392 14.0539C7.15686 14.4512 6.95833 14.9332 6.95833 15.5C6.95833 16.0668 7.15686 16.5488 7.55392 16.9461C7.95117 17.3431 8.43319 17.5417 9 17.5417ZM5.5 7.91668H12.5V5.58334C12.5 4.61112 12.1597 3.78473 11.4792 3.10418C10.7986 2.42362 9.97222 2.08334 9 2.08334C8.02778 2.08334 7.20139 2.42362 6.52083 3.10418C5.84028 3.78473 5.5 4.61112 5.5 5.58334V7.91668Z" fill="#767676"></path></svg>