<svg width="24" height="24" viewBox="0 0 24 24" fill="none" xmlns="http://www.w3.org/2000/svg">
<path fill-rule="evenodd" clip-rule="evenodd" d="M11.943 1.25H12.057C14.366 1.25 16.175 1.25 17.587 1.44C19.031 1.634 20.171 2.04 21.066 2.934C21.961 3.829 22.366 4.969 22.56 6.414C22.75 7.825 22.75 9.634 22.75 11.943V12.057C22.75 14.366 22.75 16.175 22.56 17.587C22.366 19.031 21.96 20.171 21.066 21.066C20.171 21.961 19.031 22.366 17.586 22.56C16.175 22.75 14.366 22.75 12.057 22.75H11.943C9.634 22.75 7.825 22.75 6.413 22.56C4.969 22.366 3.829 21.96 2.934 21.066C2.039 20.171 1.634 19.031 1.44 17.586C1.25 16.175 1.25 14.366 1.25 12.057V11.943C1.25 9.634 1.25 7.825 1.44 6.413C1.634 4.969 2.04 3.829 2.934 2.934C3.829 2.039 4.969 1.634 6.414 1.44C7.825 1.25 9.634 1.25 11.943 1.25ZM6.613 2.926C5.335 3.098 4.564 3.426 3.995 3.995C3.425 4.565 3.098 5.335 2.926 6.614C2.752 7.914 2.75 9.622 2.75 12C2.75 14.378 2.752 16.086 2.926 17.386C3.098 18.665 3.426 19.436 3.995 20.006C4.565 20.575 5.335 20.902 6.614 21.074C7.914 21.248 9.622 21.25 12 21.25C14.378 21.25 16.086 21.248 17.386 21.074C18.665 20.902 19.436 20.574 20.006 20.005C20.575 19.435 20.902 18.665 21.074 17.386C21.248 16.086 21.25 14.378 21.25 12C21.25 9.622 21.248 7.914 21.074 6.614C20.902 5.335 20.574 4.564 20.005 3.994C19.435 3.425 18.665 3.098 17.386 2.926C16.086 2.752 14.378 2.75 12 2.75C9.622 2.75 7.913 2.752 6.613 2.926ZM16 6.75C15.6685 6.75 15.3505 6.8817 15.1161 7.11612C14.8817 7.35054 14.75 7.66848 14.75 8C14.75 8.33152 14.8817 8.64946 15.1161 8.88388C15.3505 9.1183 15.6685 9.25 16 9.25C16.3315 9.25 16.6495 9.1183 16.8839 8.88388C17.1183 8.64946 17.25 8.33152 17.25 8C17.25 7.66848 17.1183 7.35054 16.8839 7.11612C16.6495 6.8817 16.3315 6.75 16 6.75ZM13.25 8C13.25 7.27065 13.5397 6.57118 14.0555 6.05546C14.5712 5.53973 15.2707 5.25 16 5.25C16.7293 5.25 17.4288 5.53973 17.9445 6.05546C18.4603 6.57118 18.75 7.27065 18.75 8C18.75 8.72935 18.4603 9.42882 17.9445 9.94454C17.4288 10.4603 16.7293 10.75 16 10.75C15.2707 10.75 14.5712 10.4603 14.0555 9.94454C13.5397 9.42882 13.25 8.72935 13.25 8ZM8.504 13.177C8.22344 12.8792 7.83649 12.7043 7.42754 12.6907C7.0186 12.677 6.62083 12.8256 6.321 13.104L5.511 13.857C5.36513 13.9924 5.17145 14.0643 4.97257 14.0569C4.77369 14.0495 4.58589 13.9634 4.4505 13.8175C4.31511 13.6716 4.24321 13.478 4.25061 13.2791C4.25802 13.0802 4.34413 12.8924 4.49 12.757L5.3 12.005C5.88993 11.4569 6.67267 11.1643 7.47747 11.1911C8.28227 11.2179 9.04383 11.5619 9.596 12.148L12.243 14.958C12.3768 15.1 12.5581 15.1878 12.7525 15.2048C12.9468 15.2218 13.1406 15.1667 13.297 15.05C13.8783 14.6171 14.5941 14.4038 15.3176 14.4479C16.041 14.492 16.7256 14.7906 17.25 15.291L19.518 17.458C19.6556 17.5968 19.7335 17.7838 19.7353 17.9791C19.7371 18.1745 19.6625 18.3629 19.5275 18.5042C19.3925 18.6454 19.2077 18.7284 19.0124 18.7355C18.8172 18.7426 18.6269 18.6731 18.482 18.542L16.214 16.376C15.9459 16.1206 15.5961 15.9681 15.2265 15.9456C14.8568 15.9231 14.4911 16.032 14.194 16.253C13.7425 16.5898 13.183 16.7488 12.6218 16.6998C12.0607 16.6507 11.5372 16.397 11.151 15.987L8.504 13.177Z" fill="black"/>
</svg>
