<svg width="32" height="32" viewBox="0 0 32 32" fill="none" xmlns="http://www.w3.org/2000/svg">
<rect width="32" height="32" rx="16" fill="#F4F4F4"/>
<path d="M22.917 11.1875C23.4299 11.6694 23.75 12.3533 23.75 13.1113V19.333C23.75 21.7727 21.7727 23.75 19.333 23.75H13.1113C12.6681 23.7502 12.2316 23.6386 11.8428 23.4258C11.5975 23.2915 11.3765 23.1193 11.1865 22.917L13.0879 22.916L13.1016 22.917V22.918H19.333C20.2833 22.918 21.1952 22.5401 21.8672 21.8682C22.5392 21.1962 22.917 20.2843 22.917 19.334V11.1875ZM10.8887 8.25H18.8887C19.5884 8.25 20.26 8.52771 20.7549 9.02246C21.2497 9.5173 21.5273 10.1889 21.5273 10.8887V18.8887C21.5273 19.5885 21.2498 20.26 20.7549 20.7549C20.26 21.2498 19.5885 21.5273 18.8887 21.5273H10.8887C10.1889 21.5273 9.5173 21.2497 9.02246 20.7549C8.52771 20.26 8.25 19.5884 8.25 18.8887V10.8887C8.25006 10.1889 8.52762 9.5173 9.02246 9.02246C9.5173 8.52762 10.1889 8.25006 10.8887 8.25ZM10.8887 9.08301C9.89211 9.08313 9.08313 9.89211 9.08301 10.8887V18.8887C9.08301 19.3675 9.2737 19.8274 9.6123 20.166C9.95083 20.5044 10.41 20.6943 10.8887 20.6943H18.8887C19.3675 20.6943 19.8274 20.5046 20.166 20.166C20.5046 19.8274 20.6943 19.3675 20.6943 18.8887V10.8887C20.6942 9.89203 19.8853 9.08301 18.8887 9.08301H10.8887Z" fill="black" stroke="black" stroke-width="0.5"/>
</svg>
