<svg width="20" height="21" viewBox="0 0 20 21" fill="none" xmlns="http://www.w3.org/2000/svg">
<path fill-rule="evenodd" clip-rule="evenodd" d="M9.54198 0.669922C14.812 0.669922 19.084 5.14692 19.084 10.6699C19.084 16.1929 14.812 20.6699 9.54198 20.6699C4.27195 20.6699 0 16.1929 0 10.6699C0 5.14692 4.27195 0.669922 9.54198 0.669922ZM13.8359 9.16992C13.4563 9.16992 13.0922 9.32796 12.8238 9.60926C12.5554 9.89057 12.4046 10.2721 12.4046 10.6699C12.4046 11.0677 12.5554 11.4493 12.8238 11.7306C13.0922 12.0119 13.4563 12.1699 13.8359 12.1699C14.2155 12.1699 14.5795 12.0119 14.848 11.7306C15.1164 11.4493 15.2672 11.0677 15.2672 10.6699C15.2672 10.2721 15.1164 9.89057 14.848 9.60926C14.5795 9.32796 14.2155 9.16992 13.8359 9.16992ZM9.54198 9.16992C9.16238 9.16992 8.79832 9.32796 8.5299 9.60926C8.26148 9.89057 8.11069 10.2721 8.11069 10.6699C8.11069 11.0677 8.26148 11.4493 8.5299 11.7306C8.79832 12.0119 9.16238 12.1699 9.54198 12.1699C9.92159 12.1699 10.2856 12.0119 10.5541 11.7306C10.8225 11.4493 10.9733 11.0677 10.9733 10.6699C10.9733 10.2721 10.8225 9.89057 10.5541 9.60926C10.2856 9.32796 9.92159 9.16992 9.54198 9.16992ZM5.24809 9.16992C4.86849 9.16992 4.50443 9.32796 4.23601 9.60926C3.96759 9.89057 3.81679 10.2721 3.81679 10.6699C3.81679 11.0677 3.96759 11.4493 4.23601 11.7306C4.50443 12.0119 4.86849 12.1699 5.24809 12.1699C5.6277 12.1699 5.99175 12.0119 6.26017 11.7306C6.52859 11.4493 6.67939 11.0677 6.67939 10.6699C6.67939 10.2721 6.52859 9.89057 6.26017 9.60926C5.99175 9.32796 5.6277 9.16992 5.24809 9.16992Z" fill="white"/>
</svg>
