<svg width="29" height="29" viewBox="0 0 29 29" fill="none" xmlns="http://www.w3.org/2000/svg">
<rect width="29" height="29" rx="14.5" fill="#006CD8"/>
<path d="M11.8718 18.1667C11.535 18.1667 11.2499 18.0501 11.0166 17.8167C10.7833 17.5834 10.6666 17.2984 10.6666 16.9616V9.37191C10.6666 9.03514 10.7833 8.75008 11.0166 8.51675C11.2499 8.28341 11.535 8.16675 11.8718 8.16675H19.4614C19.7982 8.16675 20.0833 8.28341 20.3166 8.51675C20.5499 8.75008 20.6666 9.03514 20.6666 9.37191V16.9616C20.6666 17.2984 20.5499 17.5834 20.3166 17.8167C20.0833 18.0501 19.7982 18.1667 19.4614 18.1667H11.8718ZM11.8718 17.1667H19.4614C19.5128 17.1667 19.5598 17.1454 19.6024 17.1026C19.6452 17.0599 19.6666 17.0129 19.6666 16.9616V11.5129H15.8589C15.6871 11.5129 15.5438 11.4554 15.4288 11.3404C15.3139 11.2255 15.2564 11.0821 15.2564 10.9102V9.16675H11.8718C11.8204 9.16675 11.7734 9.18814 11.7308 9.23091C11.688 9.27358 11.6666 9.32058 11.6666 9.37191V16.9616C11.6666 17.0129 11.688 17.0599 11.7308 17.1026C11.7734 17.1454 11.8204 17.1667 11.8718 17.1667ZM9.53842 20.5001C9.20164 20.5001 8.91659 20.3834 8.68325 20.1501C8.44992 19.9167 8.33325 19.6317 8.33325 19.2949V11.2052C8.33325 11.0634 8.38114 10.9445 8.47692 10.8487C8.57259 10.7531 8.69136 10.7052 8.83325 10.7052C8.97514 10.7052 9.09397 10.7531 9.18975 10.8487C9.28542 10.9445 9.33325 11.0634 9.33325 11.2052V19.2949C9.33325 19.3462 9.35464 19.3932 9.39742 19.4359C9.44009 19.4787 9.48709 19.5001 9.53842 19.5001H17.6281C17.77 19.5001 17.8888 19.5479 17.9846 19.6436C18.0803 19.7394 18.1281 19.8582 18.1281 20.0001C18.1281 20.142 18.0803 20.2607 17.9846 20.3564C17.8888 20.4522 17.77 20.5001 17.6281 20.5001H9.53842Z" fill="white"/>
</svg>
