<svg width="29" height="33" viewBox="0 0 29 33" fill="none" xmlns="http://www.w3.org/2000/svg">
<g filter="url(#filter0_d_14985_4526)">
<path fill-rule="evenodd" clip-rule="evenodd" d="M14.542 4.66992C19.812 4.66992 24.084 9.14692 24.084 14.6699C24.084 20.1929 19.812 24.6699 14.542 24.6699C9.27195 24.6699 5 20.1929 5 14.6699C5 9.14692 9.27195 4.66992 14.542 4.66992ZM18.8359 13.1699C18.4563 13.1699 18.0922 13.328 17.8238 13.6093C17.5554 13.8906 17.4046 14.2721 17.4046 14.6699C17.4046 15.0677 17.5554 15.4493 17.8238 15.7306C18.0922 16.0119 18.4563 16.1699 18.8359 16.1699C19.2155 16.1699 19.5795 16.0119 19.848 15.7306C20.1164 15.4493 20.2672 15.0677 20.2672 14.6699C20.2672 14.2721 20.1164 13.8906 19.848 13.6093C19.5795 13.328 19.2155 13.1699 18.8359 13.1699ZM14.542 13.1699C14.1624 13.1699 13.7983 13.328 13.5299 13.6093C13.2615 13.8906 13.1107 14.2721 13.1107 14.6699C13.1107 15.0677 13.2615 15.4493 13.5299 15.7306C13.7983 16.0119 14.1624 16.1699 14.542 16.1699C14.9216 16.1699 15.2856 16.0119 15.5541 15.7306C15.8225 15.4493 15.9733 15.0677 15.9733 14.6699C15.9733 14.2721 15.8225 13.8906 15.5541 13.6093C15.2856 13.328 14.9216 13.1699 14.542 13.1699ZM10.2481 13.1699C9.86849 13.1699 9.50443 13.328 9.23601 13.6093C8.96759 13.8906 8.81679 14.2721 8.81679 14.6699C8.81679 15.0677 8.96759 15.4493 9.23601 15.7306C9.50443 16.0119 9.86849 16.1699 10.2481 16.1699C10.6277 16.1699 10.9918 16.0119 11.2602 15.7306C11.5286 15.4493 11.6794 15.0677 11.6794 14.6699C11.6794 14.2721 11.5286 13.8906 11.2602 13.6093C10.9918 13.328 10.6277 13.1699 10.2481 13.1699Z" fill="white"/>
</g>
<defs>
<filter id="filter0_d_14985_4526" x="1" y="4.66992" width="27.084" height="28" filterUnits="userSpaceOnUse" color-interpolation-filters="sRGB">
<feFlood flood-opacity="0" result="BackgroundImageFix"/>
<feColorMatrix in="SourceAlpha" type="matrix" values="0 0 0 0 0 0 0 0 0 0 0 0 0 0 0 0 0 0 127 0" result="hardAlpha"/>
<feOffset dy="4"/>
<feGaussianBlur stdDeviation="2"/>
<feComposite in2="hardAlpha" operator="out"/>
<feColorMatrix type="matrix" values="0 0 0 0 0 0 0 0 0 0 0 0 0 0 0 0 0 0 0.25 0"/>
<feBlend mode="normal" in2="BackgroundImageFix" result="effect1_dropShadow_14985_4526"/>
<feBlend mode="normal" in="SourceGraphic" in2="effect1_dropShadow_14985_4526" result="shape"/>
</filter>
</defs>
</svg>
