<svg width="24" height="24" viewBox="0 0 24 24" fill="none" xmlns="http://www.w3.org/2000/svg">
<path d="M2 11.5C2 8.213 2 6.569 2.908 5.462C3.07409 5.25965 3.25965 5.07409 3.462 4.908C4.57 4 6.212 4 9.5 4C12.787 4 14.431 4 15.538 4.908C15.7404 5.07409 15.9259 5.25965 16.092 5.462C17 6.57 17 8.212 17 11.5V12.5C17 15.787 17 17.431 16.092 18.538C15.9259 18.7404 15.7404 18.9259 15.538 19.092C14.43 20 12.788 20 9.5 20C6.213 20 4.569 20 3.462 19.092C3.25965 18.9259 3.07409 18.7404 2.908 18.538C2 17.43 2 15.788 2 12.5V11.5ZM17 9.5L17.658 9.171C19.604 8.198 20.578 7.711 21.288 8.151C22 8.591 22 9.679 22 11.854V12.146C22 14.322 22 15.409 21.289 15.849C20.577 16.289 19.604 15.802 17.659 14.829L17 14.5V9.5Z" stroke="black" stroke-width="1.5"/>
</svg>
