<svg width="29" height="29" viewBox="0 0 29 29" fill="none" xmlns="http://www.w3.org/2000/svg">
<rect width="29" height="29" rx="14.5" fill="#ECECEC"/>
<path d="M11.8719 18.1667C11.5351 18.1667 11.25 18.0501 11.0167 17.8167C10.7834 17.5834 10.6667 17.2984 10.6667 16.9616V9.37191C10.6667 9.03514 10.7834 8.75008 11.0167 8.51675C11.25 8.28341 11.5351 8.16675 11.8719 8.16675H19.4615C19.7983 8.16675 20.0834 8.28341 20.3167 8.51675C20.55 8.75008 20.6667 9.03514 20.6667 9.37191V16.9616C20.6667 17.2984 20.55 17.5834 20.3167 17.8167C20.0834 18.0501 19.7983 18.1667 19.4615 18.1667H11.8719ZM11.8719 17.1667H19.4615C19.5129 17.1667 19.5599 17.1454 19.6025 17.1026C19.6453 17.0599 19.6667 17.0129 19.6667 16.9616V11.5129H15.859C15.6873 11.5129 15.5439 11.4554 15.4289 11.3404C15.314 11.2255 15.2565 11.0821 15.2565 10.9102V9.16675H11.8719C11.8205 9.16675 11.7735 9.18814 11.7309 9.23091C11.6881 9.27358 11.6667 9.32058 11.6667 9.37191V16.9616C11.6667 17.0129 11.6881 17.0599 11.7309 17.1026C11.7735 17.1454 11.8205 17.1667 11.8719 17.1667ZM9.53854 20.5001C9.20176 20.5001 8.91671 20.3834 8.68337 20.1501C8.45004 19.9167 8.33337 19.6317 8.33337 19.2949V11.2052C8.33337 11.0634 8.38126 10.9445 8.47704 10.8487C8.57271 10.7531 8.69149 10.7052 8.83337 10.7052C8.97526 10.7052 9.0941 10.7531 9.18987 10.8487C9.28554 10.9445 9.33337 11.0634 9.33337 11.2052V19.2949C9.33337 19.3462 9.35476 19.3932 9.39754 19.4359C9.44021 19.4787 9.48721 19.5001 9.53854 19.5001H17.6282C17.7701 19.5001 17.8889 19.5479 17.9847 19.6436C18.0804 19.7394 18.1282 19.8582 18.1282 20.0001C18.1282 20.142 18.0804 20.2607 17.9847 20.3564C17.8889 20.4522 17.7701 20.5001 17.6282 20.5001H9.53854Z" fill="#181818"/>
</svg>
