<svg width="100" height="100" viewBox="0 0 100 100" fill="none" xmlns="http://www.w3.org/2000/svg">
<rect width="100" height="100" rx="50" fill="#001E57" fill-opacity="0.05"/>
<path d="M55.001 44C55.001 45.3261 54.4742 46.5979 53.5365 47.5355C52.5988 48.4732 51.3271 49 50.001 49C48.6749 49 47.4031 48.4732 46.4654 47.5355C45.5278 46.5979 45.001 45.3261 45.001 44C45.001 42.6739 45.5278 41.4021 46.4654 40.4645C47.4031 39.5268 48.6749 39 50.001 39C51.3271 39 52.5988 39.5268 53.5365 40.4645C54.4742 41.4021 55.001 42.6739 55.001 44Z" stroke="#001E57" stroke-width="3" stroke-linecap="round" stroke-linejoin="round"/>
<path d="M62.0019 66C62.0019 68.21 56.6299 70 50.0019 70C43.3739 70 38.0019 68.21 38.0019 66M52.5159 60.988C51.8404 61.638 50.9394 62.001 50.0019 62.001C49.0645 62.001 48.1635 61.638 47.4879 60.988C41.3099 55.002 33.0319 48.316 37.0679 38.608C39.2539 33.358 44.4939 30 50.0019 30C55.5099 30 60.7519 33.36 62.9359 38.608C66.9679 48.302 58.7099 55.022 52.5159 60.988Z" stroke="#001E57" stroke-width="3" stroke-linecap="round" stroke-linejoin="round"/>
</svg>
