<svg width="20" height="20" viewBox="0 0 20 20" fill="none" xmlns="http://www.w3.org/2000/svg">
<path d="M12.0837 7.50008C12.0837 8.05262 11.8642 8.58252 11.4735 8.97322C11.0828 9.36392 10.5529 9.58341 10.0003 9.58341C9.44779 9.58341 8.91789 9.36392 8.52719 8.97322C8.13649 8.58252 7.91699 8.05262 7.91699 7.50008C7.91699 6.94755 8.13649 6.41764 8.52719 6.02694C8.91789 5.63624 9.44779 5.41675 10.0003 5.41675C10.5529 5.41675 11.0828 5.63624 11.4735 6.02694C11.8642 6.41764 12.0837 6.94755 12.0837 7.50008Z" stroke="#333333" stroke-width="1.25" stroke-linecap="round" stroke-linejoin="round"/>
<path d="M15.0007 16.6667C15.0007 17.5876 12.7624 18.3334 10.0007 18.3334C7.23906 18.3334 5.00073 17.5876 5.00073 16.6667M11.0482 14.5784C10.7667 14.8492 10.3913 15.0005 10.0007 15.0005C9.61012 15.0005 9.2347 14.8492 8.95323 14.5784C6.37906 12.0842 2.92989 9.29841 4.61156 5.25341C5.52239 3.06591 7.70573 1.66675 10.0007 1.66675C12.2957 1.66675 14.4799 3.06675 15.3899 5.25341C17.0699 9.29258 13.6291 12.0926 11.0482 14.5784Z" stroke="#333333" stroke-width="1.25" stroke-linecap="round" stroke-linejoin="round"/>
</svg>
