<svg width="48" height="48" viewBox="0 0 48 48" fill="none" xmlns="http://www.w3.org/2000/svg">
<circle cx="24" cy="24" r="23.5" fill="white" stroke="#DBDBDB"/>
<path d="M26.5005 21C26.5005 21.663 26.2371 22.2989 25.7683 22.7678C25.2994 23.2366 24.6635 23.5 24.0005 23.5C23.3374 23.5 22.7016 23.2366 22.2327 22.7678C21.7639 22.2989 21.5005 21.663 21.5005 21C21.5005 20.337 21.7639 19.7011 22.2327 19.2322C22.7016 18.7634 23.3374 18.5 24.0005 18.5C24.6635 18.5 25.2994 18.7634 25.7683 19.2322C26.2371 19.7011 26.5005 20.337 26.5005 21Z" stroke="#333333" stroke-width="1.5" stroke-linecap="round" stroke-linejoin="round"/>
<path d="M30.001 32C30.001 33.105 27.315 34 24.001 34C20.687 34 18.001 33.105 18.001 32M25.258 29.494C24.9202 29.819 24.4697 30.0005 24.001 30.0005C23.5322 30.0005 23.0817 29.819 22.744 29.494C19.655 26.501 15.516 23.158 17.534 18.304C18.627 15.679 21.247 14 24.001 14C26.755 14 29.376 15.68 30.468 18.304C32.484 23.151 28.355 26.511 25.258 29.494Z" stroke="#333333" stroke-width="1.5" stroke-linecap="round" stroke-linejoin="round"/>
</svg>
