<svg width="48" height="48" viewBox="0 0 48 48" fill="none" xmlns="http://www.w3.org/2000/svg">
    <path
        d="M24 0C28.3542 0 32.3698 1.07292 36.0469 3.21875C39.724 5.36458 42.6354 8.27604 44.7812 11.9531C46.9271 15.6302 48 19.6458 48 24C48 28.3542 46.9271 32.3698 44.7812 36.0469C42.6354 39.724 39.724 42.6354 36.0469 44.7812C32.3698 46.9271 28.3542 48 24 48C19.6458 48 15.6302 46.9271 11.9531 44.7812C8.27604 42.6354 5.36458 39.724 3.21875 36.0469C1.07292 32.3698 0 28.3542 0 24C0 19.6458 1.07292 15.6302 3.21875 11.9531C5.36458 8.27604 8.27604 5.36458 11.9531 3.21875C15.6302 1.07292 19.6458 0 24 0ZM36 25.7188C36.6667 25.3438 37 24.7708 37 24C37 23.2292 36.6667 22.6562 36 22.2812L19 12.2812C18.3542 11.8854 17.6875 11.875 17 12.25C16.3333 12.6458 16 13.2292 16 14V34C16 34.7708 16.3333 35.3542 17 35.75C17.3333 35.9167 17.6667 36 18 36C18.3542 36 18.6875 35.9062 19 35.7188L36 25.7188Z"
        fill="white" fill-opacity="0.8" />
</svg>
