<svg width="28" height="28" viewBox="0 0 28 28" fill="none" xmlns="http://www.w3.org/2000/svg">
    <path
        d="M16.5872 3.13842C16.1157 3.38886 15.8082 3.95356 15.8082 4.57229V7.71501H11.2161C7.23086 7.71501 4 11.5845 4 16.3575C4 21.9211 7.34156 24.4058 8.10827 24.9067C8.21077 24.9754 8.32558 25 8.44038 25C8.88729 25 9.24809 24.563 9.24809 24.0326C9.24809 23.6643 9.07179 23.3255 8.84628 23.0751C8.46088 22.638 7.93607 21.7787 7.93607 20.2859C7.93607 17.6833 9.6991 15.5718 11.8721 15.5718H15.8082V18.7146C15.8082 19.3333 16.1116 19.898 16.5872 20.1484C17.0628 20.3989 17.6122 20.2957 17.9976 19.8832L24.5578 12.8121C24.8325 12.5126 24.9924 12.0903 24.9924 11.6434C24.9924 11.1966 24.8366 10.7743 24.5578 10.4747L17.9976 3.40359C17.8097 3.19969 17.576 3.06597 17.3255 3.01887C17.0749 2.97176 16.8183 3.01331 16.5872 3.13842Z"
        fill="white" />
</svg>
