<svg width="16" height="16" viewBox="0 0 16 16" fill="none" xmlns="http://www.w3.org/2000/svg">
<path d="M6.43951 12.8742C7.86961 12.8742 9.25881 12.397 10.3871 11.5181L14.6436 15.7753C14.9616 16.0824 15.4682 16.0736 15.7753 15.7556C16.0749 15.4454 16.0749 14.9536 15.7753 14.6434L11.5188 10.3862C13.6994 7.57875 13.1916 3.53486 10.3846 1.35393C7.57756 -0.827011 3.53433 -0.319146 1.35372 2.48831C-0.826885 5.29577 -0.319097 9.33965 2.48793 11.5206C3.61802 12.3986 5.00846 12.8749 6.43951 12.8742ZM3.01943 3.01743C4.90831 1.12824 7.97077 1.1282 9.85968 3.01736C11.7486 4.90652 11.7486 7.96945 9.85975 9.85865C7.97088 11.7478 4.90841 11.7479 3.0195 9.85872C3.01947 9.85868 3.01947 9.85868 3.01943 9.85865C1.13056 7.98325 1.11943 4.93149 2.99454 3.04233C3.00283 3.034 3.01111 3.02572 3.01943 3.01743Z" fill="#767676"/>
</svg>
