<svg width="28" height="25" viewBox="0 0 28 25" fill="none" xmlns="http://www.w3.org/2000/svg">
<g filter="url(#filter0_d_11292_6517)">
<path d="M16.5872 0.13842C16.1157 0.388855 15.8082 0.953564 15.8082 1.57229V4.71501H11.2161C7.23086 4.71501 4 8.58449 4 13.3575C4 18.9211 7.34156 21.4058 8.10827 21.9067C8.21077 21.9754 8.32558 22 8.44038 22C8.88729 22 9.24809 21.563 9.24809 21.0326C9.24809 20.6643 9.07179 20.3255 8.84628 20.0751C8.46088 19.638 7.93607 18.7787 7.93607 17.2859C7.93607 14.6833 9.6991 12.5718 11.8721 12.5718H15.8082V15.7146C15.8082 16.3333 16.1116 16.898 16.5872 17.1484C17.0628 17.3989 17.6122 17.2957 17.9976 16.8832L24.5578 9.81212C24.8325 9.51258 24.9924 9.09027 24.9924 8.64342C24.9924 8.19656 24.8366 7.77426 24.5578 7.47472L17.9976 0.403587C17.8097 0.199687 17.576 0.0659742 17.3255 0.0188683C17.0749 -0.0282376 16.8183 0.0133135 16.5872 0.13842Z" fill="white"/>
</g>
<defs>
<filter id="filter0_d_11292_6517" x="0" y="0" width="28.9922" height="30" filterUnits="userSpaceOnUse" color-interpolation-filters="sRGB">
<feFlood flood-opacity="0" result="BackgroundImageFix"/>
<feColorMatrix in="SourceAlpha" type="matrix" values="0 0 0 0 0 0 0 0 0 0 0 0 0 0 0 0 0 0 127 0" result="hardAlpha"/>
<feOffset dy="4"/>
<feGaussianBlur stdDeviation="2"/>
<feComposite in2="hardAlpha" operator="out"/>
<feColorMatrix type="matrix" values="0 0 0 0 0 0 0 0 0 0 0 0 0 0 0 0 0 0 0.15 0"/>
<feBlend mode="normal" in2="BackgroundImageFix" result="effect1_dropShadow_11292_6517"/>
<feBlend mode="normal" in="SourceGraphic" in2="effect1_dropShadow_11292_6517" result="shape"/>
</filter>
</defs>
</svg>
