<svg width="20" height="20" viewBox="0 0 20 20" fill="none" xmlns="http://www.w3.org/2000/svg">
<path d="M10.6257 9.74704V6.4585C10.6257 6.28141 10.5657 6.13294 10.4459 6.01308C10.326 5.89336 10.1775 5.8335 10.0004 5.8335C9.82322 5.8335 9.67482 5.89336 9.55523 6.01308C9.43551 6.13294 9.37565 6.28141 9.37565 6.4585V9.93933C9.37565 10.0374 9.39385 10.1324 9.43023 10.2243C9.46648 10.3163 9.52364 10.4013 9.60169 10.4793L12.4559 13.3335C12.5711 13.4489 12.7161 13.5079 12.8909 13.5106C13.0656 13.5132 13.2133 13.4542 13.334 13.3335C13.4547 13.2128 13.515 13.0664 13.515 12.8943C13.515 12.7224 13.4547 12.5761 13.334 12.4554L10.6257 9.74704ZM10.0021 17.9168C8.90711 17.9168 7.87787 17.7091 6.9144 17.2935C5.95093 16.8779 5.11287 16.314 4.40023 15.6016C3.6876 14.8893 3.12336 14.0516 2.70753 13.0885C2.29183 12.1254 2.08398 11.0965 2.08398 10.0016C2.08398 8.90662 2.29176 7.87738 2.70732 6.91391C3.12287 5.95044 3.68683 5.11238 4.39919 4.39975C5.11155 3.68711 5.94926 3.12287 6.91232 2.70704C7.87537 2.29134 8.90433 2.0835 9.99919 2.0835C11.0942 2.0835 12.1234 2.29127 13.0869 2.70683C14.0504 3.12238 14.8884 3.68634 15.6011 4.3987C16.3137 5.11107 16.8779 5.94877 17.2938 6.91183C17.7095 7.87488 17.9173 8.90384 17.9173 9.9987C17.9173 11.0937 17.7095 12.1229 17.294 13.0864C16.8784 14.0499 16.3145 14.8879 15.6021 15.6006C14.8897 16.3132 14.052 16.8775 13.089 17.2933C12.1259 17.709 11.097 17.9168 10.0021 17.9168ZM10.0007 16.6668C11.8479 16.6668 13.4208 16.0175 14.7194 14.7189C16.018 13.4203 16.6673 11.8474 16.6673 10.0002C16.6673 8.15294 16.018 6.58002 14.7194 5.28141C13.4208 3.9828 11.8479 3.3335 10.0007 3.3335C8.15343 3.3335 6.58051 3.9828 5.2819 5.28141C3.98329 6.58002 3.33398 8.15294 3.33398 10.0002C3.33398 11.8474 3.98329 13.4203 5.2819 14.7189C6.58051 16.0175 8.15343 16.6668 10.0007 16.6668Z" fill="#333333"/>
</svg>
