<svg width="31" height="32" viewBox="0 0 31 32" fill="none" xmlns="http://www.w3.org/2000/svg">
    <path
        d="M11.625 4.37435V1.79102H19.375V4.37435H11.625ZM14.2083 18.5827H16.7917V10.8327H14.2083V18.5827ZM15.5 28.916C13.9069 28.916 12.4052 28.6095 10.9947 27.9963C9.58417 27.3832 8.35192 26.5488 7.29792 25.4931C6.24392 24.4374 5.40993 23.2047 4.79596 21.7951C4.18199 20.3854 3.875 18.8841 3.875 17.291C3.875 15.698 4.18199 14.1962 4.79596 12.7857C5.40993 11.3752 6.24392 10.1429 7.29792 9.08893C8.35192 8.03493 9.5846 7.20095 10.996 6.58697C12.4073 5.973 13.9087 5.66602 15.5 5.66602C16.8347 5.66602 18.1156 5.88129 19.3427 6.31185C20.5698 6.7424 21.7215 7.36671 22.7979 8.18477L24.6062 6.37643L26.4146 8.18477L24.6062 9.9931C25.4243 11.0695 26.0486 12.2212 26.4792 13.4483C26.9097 14.6754 27.125 15.9563 27.125 17.291C27.125 18.8841 26.818 20.3858 26.204 21.7963C25.5901 23.2069 24.7561 24.4391 23.7021 25.4931C22.6481 26.5471 21.4154 27.3815 20.004 27.9963C18.5927 28.6112 17.0913 28.9177 15.5 28.916ZM15.5 26.3327C17.9972 26.3327 20.1285 25.45 21.8938 23.6848C23.659 21.9195 24.5417 19.7882 24.5417 17.291C24.5417 14.7938 23.659 12.6625 21.8938 10.8973C20.1285 9.13199 17.9972 8.24935 15.5 8.24935C13.0028 8.24935 10.8715 9.13199 9.10625 10.8973C7.34097 12.6625 6.45833 14.7938 6.45833 17.291C6.45833 19.7882 7.34097 21.9195 9.10625 23.6848C10.8715 25.45 13.0028 26.3327 15.5 26.3327Z"
        fill="#333333" />
</svg>
