<svg width="48" height="48" viewBox="0 0 48 48" fill="none" xmlns="http://www.w3.org/2000/svg">
<rect width="48" height="48" rx="24" fill="black" fill-opacity="0.5"/>
<path d="M27 20.0002C27.621 20.466 28.125 21.0699 28.4721 21.7641C28.8193 22.4584 29 23.224 29 24.0002C29 24.7764 28.8193 25.542 28.4721 26.2363C28.125 26.9306 27.621 27.5345 27 28.0002M18 27.0002H16C15.7348 27.0002 15.4804 26.8949 15.2929 26.7073C15.1054 26.5198 15 26.2654 15 26.0002V22.0002C15 21.735 15.1054 21.4806 15.2929 21.2931C15.4804 21.1056 15.7348 21.0002 16 21.0002H18L21.5 16.5002C21.5874 16.3304 21.7326 16.1975 21.9095 16.1255C22.0863 16.0535 22.2831 16.0471 22.4643 16.1075C22.6454 16.1678 22.799 16.291 22.8972 16.4548C22.9955 16.6185 23.0319 16.812 23 17.0002V31.0002C23.0319 31.1885 22.9955 31.3819 22.8972 31.5457C22.799 31.7094 22.6454 31.8326 22.4643 31.893C22.2831 31.9534 22.0863 31.947 21.9095 31.8749C21.7326 31.8029 21.5874 31.67 21.5 31.5002L18 27.0002Z" stroke="white" stroke-width="2" stroke-linecap="round" stroke-linejoin="round"/>
</svg>
