<svg width="21" height="21" viewBox="0 0 21 21" fill="none" xmlns="http://www.w3.org/2000/svg">
<rect x="6" y="6" width="10" height="9" fill="white"/>
<path d="M20.3998 9.49875L19.4348 8.77475C19.2324 8.61503 19.0868 8.39437 19.0196 8.14546C18.9524 7.89655 18.9672 7.63262 19.0618 7.39275L19.5228 6.27375C19.5899 6.1058 19.6179 5.92477 19.6047 5.74439C19.5915 5.564 19.5374 5.38899 19.4465 5.2326C19.3557 5.07621 19.2304 4.94255 19.0802 4.84174C18.9301 4.74093 18.7589 4.67562 18.5798 4.65075L17.3728 4.49675C17.1164 4.46439 16.8782 4.34767 16.6955 4.165C16.5128 3.98232 16.3961 3.74406 16.3638 3.48775L16.2098 2.28075C16.1849 2.1016 16.1196 1.93046 16.0188 1.78029C15.918 1.63012 15.7843 1.50485 15.6279 1.41399C15.4715 1.32313 15.2965 1.26904 15.1161 1.25583C14.9357 1.24262 14.7547 1.27064 14.5868 1.33775L13.4678 1.79875C13.2279 1.89329 12.964 1.90806 12.715 1.84088C12.4661 1.7737 12.2455 1.62814 12.0858 1.42575L11.3398 0.460754C11.2302 0.317477 11.089 0.20138 10.9273 0.121473C10.7656 0.0415668 10.5876 0 10.4073 0C10.2269 0 10.0489 0.0415668 9.88719 0.121473C9.72547 0.20138 9.58434 0.317477 9.47475 0.460754L8.77476 1.44775C8.61503 1.65014 8.39438 1.7957 8.14546 1.86288C7.89655 1.93006 7.63262 1.91529 7.39275 1.82075L6.27376 1.33875C6.10579 1.27184 5.92481 1.24398 5.74449 1.25728C5.56418 1.27058 5.38924 1.32469 5.23291 1.41553C5.07658 1.50636 4.94293 1.63154 4.84208 1.7816C4.74123 1.93167 4.67581 2.10269 4.65076 2.28175L4.49676 3.48875C4.46439 3.74506 4.34768 3.98332 4.165 4.166C3.98232 4.34868 3.74406 4.46539 3.48775 4.49776L2.28075 4.65175C2.1016 4.67662 1.93046 4.74193 1.78029 4.84274C1.63012 4.94355 1.50485 5.07721 1.41399 5.2336C1.32312 5.38998 1.26904 5.565 1.25583 5.74539C1.24262 5.92577 1.27064 6.1068 1.33775 6.27475L1.79875 7.39375C1.89329 7.63362 1.90806 7.89755 1.84088 8.14646C1.7737 8.39537 1.62814 8.61603 1.42575 8.77575L0.460754 9.52175C0.317477 9.63134 0.201382 9.77248 0.121475 9.93419C0.0415687 10.0959 0 10.2739 0 10.4543C0 10.6346 0.0415687 10.8126 0.121475 10.9743C0.201382 11.136 0.317477 11.2772 0.460754 11.3868L1.44775 12.1108C1.65014 12.2705 1.7957 12.4911 1.86288 12.74C1.93007 12.989 1.91529 13.2529 1.82076 13.4928L1.33875 14.6118C1.27184 14.7797 1.24399 14.9607 1.25729 15.141C1.27059 15.3213 1.32469 15.4963 1.41553 15.6526C1.50636 15.8089 1.63154 15.9426 1.7816 16.0434C1.93167 16.1443 2.10269 16.2097 2.28175 16.2348L3.48875 16.3888C3.74506 16.4211 3.98332 16.5378 4.166 16.7205C4.34868 16.9032 4.46539 17.1414 4.49776 17.3978L4.65176 18.6048C4.67662 18.7839 4.74194 18.955 4.84274 19.1052C4.94355 19.2554 5.07721 19.3807 5.2336 19.4715C5.38998 19.5624 5.565 19.6165 5.74538 19.6297C5.92577 19.6429 6.1068 19.6149 6.27476 19.5478L7.39375 19.0868C7.63361 18.9922 7.89755 18.9774 8.14646 19.0446C8.39537 19.1118 8.61603 19.2574 8.77576 19.4598L9.52175 20.4248C9.63134 20.568 9.77248 20.6841 9.9342 20.764C10.0959 20.8439 10.2739 20.8855 10.4543 20.8855C10.6346 20.8855 10.8126 20.8439 10.9743 20.764C11.136 20.6841 11.2772 20.568 11.3868 20.4248L12.1328 19.4598C12.2925 19.2574 12.5131 19.1118 12.762 19.0446C13.011 18.9774 13.2749 18.9922 13.5148 19.0868L14.6338 19.5478C14.8017 19.6147 14.9827 19.6425 15.163 19.6292C15.3433 19.6159 15.5183 19.5618 15.6746 19.471C15.8309 19.3802 15.9646 19.255 16.0654 19.1049C16.1663 18.9548 16.2317 18.7838 16.2568 18.6048L16.4108 17.3978C16.4431 17.1414 16.5598 16.9032 16.7425 16.7205C16.9252 16.5378 17.1634 16.4211 17.4198 16.3888L18.6268 16.2348C18.8059 16.2099 18.977 16.1446 19.1272 16.0438C19.2774 15.943 19.4027 15.8093 19.4935 15.6529C19.5844 15.4965 19.6385 15.3215 19.6517 15.1411C19.6649 14.9607 19.6369 14.7797 19.5698 14.6118L19.1088 13.4928C19.0142 13.2529 18.9994 12.989 19.0666 12.74C19.1338 12.4911 19.2794 12.2705 19.4818 12.1108L20.4468 11.3648C20.5831 11.249 20.6918 11.1043 20.7649 10.9411C20.8381 10.778 20.8739 10.6005 20.8697 10.4218C20.8655 10.243 20.8213 10.0674 20.7406 9.90792C20.6598 9.74839 20.5444 9.60894 20.4028 9.49975L20.3998 9.49875ZM14.2358 9.26175L10.2648 13.2328C10.0472 13.4436 9.75619 13.5615 9.45325 13.5615C9.15032 13.5615 8.85928 13.4436 8.64175 13.2328L6.64175 11.2328C6.44112 11.0183 6.3317 10.7342 6.33659 10.4406C6.34149 10.1469 6.46032 9.86666 6.66799 9.65899C6.87566 9.45132 7.15592 9.33249 7.44957 9.32759C7.74322 9.3227 8.02727 9.43212 8.24175 9.63275L9.42676 10.8178L12.6268 7.65875C12.8412 7.45812 13.1253 7.3487 13.4189 7.3536C13.7126 7.35849 13.9928 7.47732 14.2005 7.68499C14.4082 7.89266 14.527 8.17292 14.5319 8.46657C14.5368 8.76022 14.4274 9.04428 14.2268 9.25875L14.2358 9.26175Z" fill="#00A3FF"/>
</svg>
