<svg width="20" height="21" viewBox="0 0 20 21" fill="none" xmlns="http://www.w3.org/2000/svg">
<path d="M7.76302 2.32388C7.21064 2.79461 6.52384 3.07909 5.80039 3.13683C4.11215 3.27155 2.77155 4.61215 2.63683 6.30039C2.57909 7.02384 2.29461 7.71064 1.82388 8.26302C0.725374 9.55205 0.725374 11.4479 1.82388 12.737C2.29461 13.2894 2.57909 13.9762 2.63683 14.6996C2.77155 16.3878 4.11215 17.7285 5.80039 17.8632C6.52384 17.9209 7.21064 18.2054 7.76302 18.6761C9.05205 19.7746 10.9479 19.7746 12.237 18.6761C12.7894 18.2054 13.4762 17.9209 14.1996 17.8632C15.8878 17.7285 17.2285 16.3878 17.3632 14.6996C17.4209 13.9762 17.7054 13.2894 18.1761 12.737C19.2746 11.4479 19.2746 9.55205 18.1761 8.26302C17.7054 7.71064 17.4209 7.02384 17.3632 6.30039C17.2285 4.61215 15.8878 3.27155 14.1996 3.13683C13.4762 3.07909 12.7894 2.79461 12.237 2.32388C10.9479 1.22537 9.05205 1.22537 7.76302 2.32388Z" fill="#0F1E91"/>
<path d="M7.3 10.5L9.1 12.3L13.15 8.25M5.80039 3.13683C6.52384 3.07909 7.21064 2.79461 7.76302 2.32388C9.05205 1.22537 10.9479 1.22537 12.237 2.32388C12.7894 2.79461 13.4762 3.07909 14.1996 3.13683C15.8878 3.27155 17.2285 4.61215 17.3632 6.30039C17.4209 7.02384 17.7054 7.71064 18.1761 8.26302C19.2746 9.55205 19.2746 11.4479 18.1761 12.737C17.7054 13.2894 17.4209 13.9762 17.3632 14.6996C17.2285 16.3878 15.8878 17.7285 14.1996 17.8632C13.4762 17.9209 12.7894 18.2054 12.237 18.6761C10.9479 19.7746 9.05205 19.7746 7.76302 18.6761C7.21064 18.2054 6.52384 17.9209 5.80039 17.8632C4.11215 17.7285 2.77155 16.3878 2.63683 14.6996C2.57909 13.9762 2.29461 13.2894 1.82388 12.737C0.725374 11.4479 0.725374 9.55205 1.82388 8.26302C2.29461 7.71064 2.57909 7.02384 2.63683 6.30039C2.77155 4.61215 4.11215 3.27155 5.80039 3.13683Z" stroke="white" stroke-width="1.5" stroke-linecap="round" stroke-linejoin="round"/>
</svg>
