<svg width="44" height="44" viewBox="0 0 44 44" fill="none" xmlns="http://www.w3.org/2000/svg">
<path opacity="0.3" d="M22 1.35273e-05C26.3512 1.35273e-05 30.6047 1.29029 34.2225 3.70768C37.8404 6.12507 40.6602 9.561 42.3253 13.581C43.9905 17.6009 44.4261 22.0244 43.5773 26.292C42.7284 30.5596 40.6331 34.4796 37.5563 37.5563C34.4796 40.6331 30.5596 42.7284 26.292 43.5773C22.0244 44.4261 17.6009 43.9905 13.581 42.3253C9.561 40.6602 6.12507 37.8404 3.70768 34.2225C1.29029 30.6047 1.35273e-05 26.3512 1.35273e-05 22C-0.00319293 19.11 0.563665 16.2478 1.66813 13.5772C2.7726 10.9066 4.39298 8.48004 6.43651 6.43651C8.48004 4.39298 10.9066 2.7726 13.5772 1.66813C16.2478 0.563665 19.11 -0.00319293 22 1.35273e-05Z" fill="white"/>
<path d="M35.125 18.8585L33.8913 17.6248L30.75 20.766L27.6087 17.6248L26.375 18.8585L29.5163 21.9998L26.375 25.141L27.6087 26.3748L30.75 23.2335L33.8913 26.3748L35.125 25.141L31.9837 21.9998L35.125 18.8585ZM23.75 34.2498C23.6342 34.2493 23.5197 34.2258 23.4131 34.1808C23.3064 34.1357 23.2098 34.0699 23.1288 33.9873L16.4613 27.2498H10.625C10.3929 27.2498 10.1704 27.1576 10.0063 26.9935C9.84219 26.8294 9.75 26.6068 9.75 26.3748V17.6248C9.75 17.3927 9.84219 17.1701 10.0063 17.006C10.1704 16.8419 10.3929 16.7498 10.625 16.7498H16.4613L23.1288 10.0123C23.2927 9.84929 23.5145 9.75781 23.7456 9.75781C23.9768 9.75781 24.1986 9.84929 24.3625 10.0123C24.5274 10.1738 24.6217 10.394 24.625 10.6248V33.3748C24.625 33.6068 24.5328 33.8294 24.3687 33.9935C24.2046 34.1576 23.9821 34.2498 23.75 34.2498Z" fill="white"/>
</svg>
