<svg width="48" height="48" viewBox="0 0 48 48" fill="none" xmlns="http://www.w3.org/2000/svg">
<path d="M5 12.6C5 9.0166 5 7.2268 6.1134 6.1134C7.2268 5 9.0166 5 12.6 5C16.1834 5 17.9732 5 19.0866 6.1134C20.2 7.2268 20.2 9.0166 20.2 12.6V16.4C20.2 19.9834 20.2 21.7732 19.0866 22.8866C17.9732 24 16.1834 24 12.6 24C9.0166 24 7.2268 24 6.1134 22.8866C5 21.7732 5 19.9834 5 16.4V12.6ZM5 37.3C5 35.5292 5 34.6438 5.2888 33.9465C5.47977 33.4851 5.7598 33.0659 6.11287 32.7129C6.46595 32.3598 6.88514 32.0798 7.3465 31.8888C8.0438 31.6 8.9292 31.6 10.7 31.6H14.5C16.2708 31.6 17.1562 31.6 17.8535 31.8888C18.3149 32.0798 18.7341 32.3598 19.0871 32.7129C19.4402 33.0659 19.7202 33.4851 19.9112 33.9465C20.2 34.6438 20.2 35.5292 20.2 37.3C20.2 39.0708 20.2 39.9562 19.9112 40.6535C19.7202 41.1149 19.4402 41.5341 19.0871 41.8871C18.7341 42.2402 18.3149 42.5202 17.8535 42.7112C17.1562 43 16.2708 43 14.5 43H10.7C8.9292 43 8.0438 43 7.3465 42.7112C6.88514 42.5202 6.46595 42.2402 6.11287 41.8871C5.7598 41.5341 5.47977 41.1149 5.2888 40.6535C5 39.9562 5 39.0708 5 37.3ZM27.8 31.6C27.8 28.0166 27.8 26.2268 28.9134 25.1134C30.0268 24 31.8166 24 35.4 24C38.9834 24 40.7732 24 41.8866 25.1134C43 26.2268 43 28.0166 43 31.6V35.4C43 38.9834 43 40.7732 41.8866 41.8866C40.7732 43 38.9834 43 35.4 43C31.8166 43 30.0268 43 28.9134 41.8866C27.8 40.7732 27.8 38.9834 27.8 35.4V31.6ZM27.8 10.7C27.8 8.9292 27.8 8.0438 28.0888 7.3465C28.2798 6.88514 28.5598 6.46595 28.9129 6.11287C29.2659 5.7598 29.6851 5.47977 30.1465 5.2888C30.8438 5 31.7292 5 33.5 5H37.3C39.0708 5 39.9562 5 40.6535 5.2888C41.1149 5.47977 41.5341 5.7598 41.8871 6.11287C42.2402 6.46595 42.5202 6.88514 42.7112 7.3465C43 8.0438 43 8.9292 43 10.7C43 12.4708 43 13.3562 42.7112 14.0535C42.5202 14.5149 42.2402 14.9341 41.8871 15.2871C41.5341 15.6402 41.1149 15.9202 40.6535 16.1112C39.9562 16.4 39.0708 16.4 37.3 16.4H33.5C31.7292 16.4 30.8438 16.4 30.1465 16.1112C29.6851 15.9202 29.2659 15.6402 28.9129 15.2871C28.5598 14.9341 28.2798 14.5149 28.0888 14.0535C27.8 13.3562 27.8 12.4708 27.8 10.7Z" stroke="#001E57" stroke-width="3" stroke-linecap="round" stroke-linejoin="round"/>
</svg>
